<svg xmlns="http://www.w3.org/2000/svg" xmlns:xlink="http://www.w3.org/1999/xlink" width="500" zoomAndPan="magnify" viewBox="0 0 375 374.999991" height="500" preserveAspectRatio="xMidYMid meet" version="1.0"><defs><g/><clipPath id="4d0ba8a595"><path d="M 12.542969 104 L 179 104 L 179 287.792969 L 12.542969 287.792969 Z M 12.542969 104 " clip-rule="nonzero"/></clipPath><clipPath id="640da4195f"><path d="M 175 104 L 341.792969 104 L 341.792969 287.792969 L 175 287.792969 Z M 175 104 " clip-rule="nonzero"/></clipPath><clipPath id="251da9a3ec"><path d="M 27 91 L 179 91 L 179 287.792969 L 27 287.792969 Z M 27 91 " clip-rule="nonzero"/></clipPath><clipPath id="8e28e7ae3f"><path d="M 175 91 L 328 91 L 328 287.792969 L 175 287.792969 Z M 175 91 " clip-rule="nonzero"/></clipPath><clipPath id="dc0c4609bf"><path d="M 41 77.792969 L 179 77.792969 L 179 287.792969 L 41 287.792969 Z M 41 77.792969 " clip-rule="nonzero"/></clipPath><clipPath id="4670149108"><path d="M 172 77.792969 L 310 77.792969 L 310 287.792969 L 172 287.792969 Z M 172 77.792969 " clip-rule="nonzero"/></clipPath><clipPath id="544a909911"><path d="M 143 1 L 265 1 L 265 274 L 143 274 Z M 143 1 " clip-rule="nonzero"/></clipPath><clipPath id="1a39d0438f"><path d="M 86.304688 88.675781 L 263.820312 0.96875 L 356.175781 187.898438 L 178.660156 275.601562 Z M 86.304688 88.675781 " clip-rule="nonzero"/></clipPath><clipPath id="6bf0567d66"><path d="M 86.304688 88.675781 L 263.820312 0.96875 L 356.175781 187.898438 L 178.660156 275.601562 Z M 86.304688 88.675781 " clip-rule="nonzero"/></clipPath></defs><rect x="-37.5" width="450" fill="#ffffff" y="-37.499999" height="449.999989" fill-opacity="1"/><rect x="-37.5" width="450" fill="#0a0a23" y="-37.499999" height="449.999989" fill-opacity="1"/><path fill="#1f1f32" d="M 177.335938 285.878906 L 14.191406 283.847656 L 14.191406 106.1875 L 177.335938 106.1875 Z M 177.335938 285.878906 " fill-opacity="1" fill-rule="nonzero"/><g clip-path="url(#4d0ba8a595)"><path fill="#f1be32" d="M 177.335938 287.527344 C 177.332031 287.527344 177.324219 287.527344 177.316406 287.527344 L 14.171875 285.496094 C 13.265625 285.484375 12.542969 284.75 12.542969 283.847656 L 12.542969 106.1875 C 12.542969 105.277344 13.28125 104.539062 14.191406 104.539062 L 177.335938 104.539062 C 178.246094 104.539062 178.984375 105.277344 178.984375 106.1875 L 178.984375 285.878906 C 178.984375 286.320312 178.808594 286.742188 178.496094 287.050781 C 178.1875 287.355469 177.773438 287.527344 177.335938 287.527344 Z M 15.84375 282.214844 L 175.6875 284.203125 L 175.6875 107.835938 L 15.84375 107.835938 Z M 15.84375 282.214844 " fill-opacity="1" fill-rule="nonzero"/></g><path fill="#1f1f32" d="M 177.335938 285.878906 L 340.484375 283.847656 L 340.484375 106.1875 L 177.335938 106.1875 Z M 177.335938 285.878906 " fill-opacity="1" fill-rule="nonzero"/><g clip-path="url(#640da4195f)"><path fill="#f1be32" d="M 177.335938 287.527344 C 176.902344 287.527344 176.488281 287.355469 176.175781 287.050781 C 175.867188 286.742188 175.6875 286.320312 175.6875 285.878906 L 175.6875 106.1875 C 175.6875 105.277344 176.425781 104.539062 177.335938 104.539062 L 340.484375 104.539062 C 341.394531 104.539062 342.132812 105.277344 342.132812 106.1875 L 342.132812 283.847656 C 342.132812 284.75 341.40625 285.488281 340.503906 285.496094 L 177.363281 287.527344 C 177.351562 287.527344 177.34375 287.527344 177.335938 287.527344 Z M 178.992188 107.835938 L 178.992188 284.203125 L 338.835938 282.214844 L 338.835938 107.835938 Z M 178.992188 107.835938 " fill-opacity="1" fill-rule="nonzero"/></g><path fill="#1f1f32" d="M 177.335938 285.878906 C 177.335938 285.878906 137.609375 272.789062 103.058594 272.789062 C 68.511719 272.789062 28.785156 272.789062 28.785156 272.789062 L 28.785156 92.878906 C 28.785156 92.878906 50.167969 92.878906 97.832031 92.878906 C 145.5 92.878906 177.335938 105.96875 177.335938 105.96875 Z M 177.335938 285.878906 " fill-opacity="1" fill-rule="nonzero"/><g clip-path="url(#251da9a3ec)"><path fill="#f1be32" d="M 177.335938 287.527344 C 177.164062 287.527344 176.988281 287.5 176.824219 287.441406 C 176.425781 287.308594 136.9375 274.433594 103.058594 274.433594 L 28.777344 274.433594 C 27.867188 274.433594 27.128906 273.695312 27.128906 272.789062 L 27.128906 92.878906 C 27.128906 91.96875 27.867188 91.230469 28.777344 91.230469 L 97.828125 91.230469 C 145.269531 91.230469 177.640625 104.3125 177.964844 104.445312 C 178.582031 104.703125 178.984375 105.304688 178.984375 105.976562 L 178.984375 285.878906 C 178.984375 286.40625 178.726562 286.90625 178.300781 287.21875 C 178.023438 287.421875 177.679688 287.527344 177.335938 287.527344 Z M 30.425781 271.132812 L 103.054688 271.132812 C 132.875 271.132812 166.882812 280.929688 175.683594 283.625 L 175.683594 107.101562 C 169.875 104.925781 139.894531 94.53125 97.828125 94.53125 L 30.425781 94.53125 Z M 30.425781 271.132812 " fill-opacity="1" fill-rule="nonzero"/></g><path fill="#1f1f32" d="M 177.335938 285.878906 C 177.335938 285.878906 217.066406 272.789062 251.613281 272.789062 C 286.160156 272.789062 325.890625 272.789062 325.890625 272.789062 L 325.890625 92.878906 C 325.890625 92.878906 304.503906 92.878906 256.839844 92.878906 C 209.175781 92.878906 177.335938 105.96875 177.335938 105.96875 Z M 177.335938 285.878906 " fill-opacity="1" fill-rule="nonzero"/><g clip-path="url(#8e28e7ae3f)"><path fill="#f1be32" d="M 177.335938 287.527344 C 176.992188 287.527344 176.65625 287.421875 176.367188 287.210938 C 175.9375 286.902344 175.683594 286.398438 175.683594 285.871094 L 175.683594 105.96875 C 175.683594 105.304688 176.085938 104.695312 176.703125 104.441406 C 177.027344 104.308594 209.394531 91.222656 256.839844 91.222656 L 325.890625 91.222656 C 326.800781 91.222656 327.539062 91.960938 327.539062 92.871094 L 327.539062 272.773438 C 327.539062 273.683594 326.800781 274.421875 325.890625 274.421875 L 251.613281 274.421875 C 217.726562 274.421875 178.246094 287.300781 177.851562 287.429688 C 177.6875 287.5 177.515625 287.527344 177.335938 287.527344 Z M 178.992188 107.101562 L 178.992188 283.628906 C 187.792969 280.933594 221.796875 271.140625 251.621094 271.140625 L 324.25 271.140625 L 324.25 94.53125 L 256.847656 94.53125 C 214.773438 94.53125 184.792969 104.925781 178.992188 107.101562 Z M 178.992188 107.101562 " fill-opacity="1" fill-rule="nonzero"/></g><path fill="#1f1f32" d="M 177.335938 285.878906 C 177.335938 285.878906 151.867188 259.375 117.320312 259.375 C 82.769531 259.375 43.042969 259.375 43.042969 259.375 L 43.042969 79.464844 C 43.042969 79.464844 64.425781 79.464844 112.089844 79.464844 C 159.757812 79.464844 177.335938 105.96875 177.335938 105.96875 Z M 177.335938 285.878906 " fill-opacity="1" fill-rule="nonzero"/><g clip-path="url(#dc0c4609bf)"><path fill="#f1be32" d="M 177.335938 287.527344 C 176.894531 287.527344 176.464844 287.347656 176.148438 287.019531 C 175.898438 286.761719 150.738281 261.019531 117.324219 261.019531 L 43.042969 261.019531 C 42.132812 261.019531 41.394531 260.28125 41.394531 259.375 L 41.394531 79.464844 C 41.394531 78.554688 42.132812 77.816406 43.042969 77.816406 L 112.089844 77.816406 C 160.09375 77.816406 177.976562 103.945312 178.707031 105.058594 C 178.886719 105.328125 178.984375 105.644531 178.984375 105.96875 L 178.984375 285.871094 C 178.984375 286.542969 178.574219 287.152344 177.949219 287.402344 C 177.753906 287.488281 177.546875 287.527344 177.335938 287.527344 Z M 44.691406 257.71875 L 117.320312 257.71875 C 145.902344 257.71875 168.054688 275.140625 175.683594 282.023438 L 175.683594 106.503906 C 173.28125 103.300781 155.089844 81.117188 112.089844 81.117188 L 44.691406 81.117188 Z M 44.691406 257.71875 " fill-opacity="1" fill-rule="nonzero"/></g><path fill="#1f1f32" d="M 173.710938 285.878906 C 173.710938 285.878906 199.183594 259.375 233.730469 259.375 C 268.277344 259.375 308.007812 259.375 308.007812 259.375 L 308.007812 79.464844 C 308.007812 79.464844 286.621094 79.464844 238.957031 79.464844 C 191.292969 79.464844 173.710938 105.96875 173.710938 105.96875 Z M 173.710938 285.878906 " fill-opacity="1" fill-rule="nonzero"/><g clip-path="url(#4670149108)"><path fill="#f1be32" d="M 173.710938 287.527344 C 173.5 287.527344 173.296875 287.488281 173.097656 287.40625 C 172.472656 287.15625 172.0625 286.550781 172.0625 285.878906 L 172.0625 105.96875 C 172.0625 105.644531 172.15625 105.328125 172.339844 105.058594 C 173.070312 103.945312 190.957031 77.816406 238.957031 77.816406 L 308.007812 77.816406 C 308.914062 77.816406 309.652344 78.554688 309.652344 79.464844 L 309.652344 259.367188 C 309.652344 260.277344 308.914062 261.015625 308.007812 261.015625 L 233.722656 261.015625 C 200.261719 261.015625 175.148438 286.753906 174.898438 287.011719 C 174.582031 287.347656 174.152344 287.527344 173.710938 287.527344 Z M 175.359375 106.503906 L 175.359375 282.023438 C 182.992188 275.140625 205.140625 257.71875 233.722656 257.71875 L 306.351562 257.71875 L 306.351562 81.117188 L 238.957031 81.117188 C 195.953125 81.117188 177.757812 103.300781 175.359375 106.503906 Z M 175.359375 106.503906 " fill-opacity="1" fill-rule="nonzero"/></g><g clip-path="url(#544a909911)"><g clip-path="url(#1a39d0438f)"><g clip-path="url(#6bf0567d66)"><path fill="#1f1f32" d="M 264.40625 2.070312 C 264.40625 2.070312 264.425781 2.113281 264.425781 2.113281 C 264.445312 2.152344 264.464844 2.195312 264.484375 2.238281 C 264.507812 2.277344 264.507812 2.277344 264.527344 2.320312 C 264.546875 2.359375 264.566406 2.402344 264.566406 2.402344 C 264.589844 2.441406 264.589844 2.441406 264.566406 2.503906 C 264.585938 2.546875 264.609375 2.589844 264.566406 2.609375 C 264.585938 2.648438 264.546875 2.671875 264.566406 2.710938 L 264.566406 2.917969 C 264.542969 2.980469 264.542969 2.980469 264.523438 3.042969 L 264.480469 3.164062 L 264.460938 3.226562 C 264.398438 3.308594 263.773438 4.441406 262.671875 6.375 C 260.808594 11.878906 261.257812 21.746094 261.726562 31.347656 C 262.195312 41.460938 262.722656 51.90625 260.609375 58.359375 C 257.945312 66.621094 254.746094 71.601562 252.605469 74.253906 C 257.625 73.164062 260.847656 73.324219 261.113281 73.34375 C 261.753906 73.390625 262.226562 73.929688 262.183594 74.566406 C 262.160156 74.9375 261.929688 75.308594 261.621094 75.515625 C 261.453125 75.597656 245.3125 84.910156 237.945312 105.847656 C 235.601562 112.460938 233.953125 120.6875 232.367188 128.625 C 229.8125 141.371094 227.148438 154.523438 221.597656 162.773438 C 216.402344 170.492188 209.539062 176.917969 204.605469 181.003906 C 207.253906 180.3125 210 179.933594 212.746094 179.863281 C 213.363281 179.867188 213.917969 180.367188 213.914062 180.984375 C 213.894531 181.355469 213.746094 181.683594 213.457031 181.933594 C 207.015625 186.710938 206.113281 193.742188 205.171875 201.210938 C 204.378906 207.421875 203.542969 213.855469 199.675781 219.679688 C 192.835938 230.007812 181.136719 238.105469 179.023438 239.558594 C 179.019531 240.488281 179.058594 241.398438 179.074219 242.261719 C 179.578125 261.9375 183.078125 272.25 183.140625 272.375 C 183.34375 272.894531 183.113281 273.46875 182.640625 273.757812 L 182.472656 273.839844 C 181.976562 274.082031 181.398438 273.957031 181.03125 273.519531 C 180.804688 273.273438 175.820312 267.035156 172.917969 251.6875 C 172.375 248.710938 171.835938 245.222656 171.523438 241.257812 C 169.382812 240.050781 160.164062 234.515625 157.476562 226.578125 C 154.953125 219.074219 151.261719 218.582031 151.261719 218.582031 C 150.683594 218.558594 150.230469 218.058594 150.191406 217.460938 C 150.152344 216.863281 150.632812 216.371094 151.1875 216.25 C 152.757812 216.089844 154.386719 216.160156 155.933594 216.476562 C 153.183594 213.308594 149.449219 208.664062 147.28125 204.898438 C 140.832031 193.621094 142.933594 186.097656 149.941406 166.003906 C 154.148438 154.097656 147.996094 141.433594 147.933594 141.3125 C 147.648438 140.730469 147.878906 140.050781 148.457031 139.765625 C 148.746094 139.621094 149.097656 139.601562 149.40625 139.707031 C 151.714844 140.628906 153.855469 141.9375 155.703125 143.597656 C 154.988281 141.839844 154.460938 140.042969 154.160156 138.183594 C 152.875 130.375 155.476562 122.191406 161.851562 113.84375 C 182.910156 86.347656 184.234375 76.839844 184.257812 76.777344 C 184.300781 76.34375 184.609375 75.933594 185.066406 75.8125 C 185.5 75.648438 185.933594 75.796875 186.261719 76.148438 C 186.488281 76.394531 188.273438 78.550781 188.554688 84.539062 C 189.652344 78.847656 192.414062 71.617188 197.84375 62.601562 C 216.085938 32.53125 262.050781 2.203125 262.734375 1.710938 L 262.777344 1.691406 C 262.816406 1.671875 262.898438 1.628906 262.941406 1.609375 L 263.023438 1.570312 L 263.105469 1.527344 C 263.148438 1.507812 263.210938 1.527344 263.210938 1.527344 L 263.3125 1.527344 L 263.417969 1.53125 L 263.519531 1.53125 L 263.644531 1.570312 L 263.703125 1.59375 C 263.765625 1.613281 263.789062 1.65625 263.828125 1.632812 L 263.890625 1.65625 C 263.890625 1.65625 263.972656 1.71875 263.972656 1.71875 L 264.054688 1.78125 C 264.074219 1.820312 264.074219 1.820312 264.097656 1.863281 C 264.117188 1.90625 264.136719 1.945312 264.199219 1.964844 C 264.238281 1.945312 264.238281 1.945312 264.261719 1.988281 C 264.425781 2.007812 264.40625 2.070312 264.40625 2.070312 Z M 264.40625 2.070312 " fill-opacity="1" fill-rule="nonzero"/><path fill="#0a0a23" d="M 264.40625 2.070312 C 264.382812 2.03125 264.363281 1.988281 264.300781 1.96875 C 264.238281 1.945312 264.28125 1.925781 264.261719 1.882812 L 264.179688 1.820312 C 264.15625 1.78125 264.097656 1.761719 264.097656 1.761719 L 264.035156 1.738281 C 263.972656 1.71875 263.953125 1.675781 263.910156 1.695312 L 263.847656 1.675781 L 263.726562 1.632812 L 263.414062 1.632812 C 263.375 1.652344 263.3125 1.632812 263.3125 1.632812 L 263.230469 1.671875 L 263.148438 1.714844 C 263.105469 1.734375 263.023438 1.777344 262.980469 1.796875 L 262.941406 1.816406 C 262.234375 2.265625 216.25 32.65625 198.007812 62.726562 C 192.554688 71.699219 189.796875 78.929688 188.71875 84.664062 C 188.417969 78.632812 186.652344 76.519531 186.425781 76.273438 C 186.117188 75.960938 185.683594 75.816406 185.230469 75.9375 C 184.773438 76.058594 184.445312 76.429688 184.359375 76.882812 C 184.359375 76.984375 183.011719 86.453125 161.953125 113.945312 C 155.453125 122.253906 152.855469 130.4375 154.140625 138.246094 C 154.441406 140.101562 154.96875 141.902344 155.683594 143.660156 C 153.832031 142 151.734375 140.667969 149.386719 139.769531 C 148.808594 139.539062 148.125 139.824219 147.894531 140.402344 C 147.792969 140.710938 147.808594 141.0625 147.953125 141.351562 C 148.015625 141.476562 154.125 154.15625 149.980469 166.089844 C 142.972656 186.179688 140.871094 193.703125 147.320312 204.980469 C 149.492188 208.75 153.226562 213.390625 155.976562 216.558594 C 154.429688 216.242188 152.800781 216.175781 151.230469 216.332031 C 150.652344 216.410156 150.195312 216.945312 150.234375 217.542969 C 150.273438 218.144531 150.703125 218.597656 151.300781 218.664062 C 151.34375 218.644531 154.992188 219.15625 157.515625 226.660156 C 160.203125 234.597656 169.382812 240.152344 171.566406 241.339844 C 171.9375 245.324219 172.417969 248.796875 172.960938 251.769531 C 175.820312 267.035156 180.867188 273.292969 181.050781 273.5625 C 181.398438 273.957031 181.976562 274.082031 182.433594 273.859375 L 182.515625 273.816406 C 182.992188 273.53125 183.222656 272.953125 183.015625 272.4375 C 182.976562 272.355469 179.453125 261.996094 178.949219 242.324219 C 178.933594 241.457031 178.894531 240.550781 178.898438 239.621094 C 181.074219 238.1875 192.734375 230.109375 199.550781 219.738281 C 203.417969 213.917969 204.253906 207.480469 205.046875 201.273438 C 205.992188 193.804688 206.914062 186.710938 213.332031 181.992188 C 213.871094 181.625 213.976562 180.902344 213.566406 180.382812 C 213.363281 180.074219 213.011719 179.886719 212.621094 179.925781 C 209.875 179.996094 207.148438 180.414062 204.484375 181.0625 C 209.414062 176.980469 216.277344 170.550781 221.472656 162.835938 C 227.023438 154.585938 229.6875 141.429688 232.246094 128.6875 C 233.871094 120.726562 235.519531 112.5 237.824219 105.90625 C 245.1875 84.972656 261.351562 75.699219 261.515625 75.617188 C 262.074219 75.289062 262.242188 74.589844 261.976562 74.050781 C 261.8125 73.71875 261.445312 73.492188 261.03125 73.488281 C 260.761719 73.46875 257.605469 73.328125 252.523438 74.398438 C 254.660156 71.746094 257.863281 66.765625 260.523438 58.503906 C 262.640625 52.050781 262.109375 41.605469 261.644531 31.488281 C 261.171875 21.890625 260.703125 11.980469 262.585938 6.519531 C 263.671875 4.542969 264.316406 3.453125 264.378906 3.371094 L 264.398438 3.308594 L 264.441406 3.1875 C 264.460938 3.125 264.460938 3.125 264.480469 3.0625 L 264.484375 2.957031 L 264.484375 2.855469 C 264.460938 2.8125 264.503906 2.792969 264.484375 2.753906 C 264.464844 2.710938 264.503906 2.691406 264.484375 2.648438 C 264.464844 2.609375 264.503906 2.585938 264.484375 2.546875 C 264.464844 2.503906 264.445312 2.464844 264.445312 2.464844 C 264.421875 2.421875 264.421875 2.421875 264.402344 2.378906 C 264.382812 2.339844 264.363281 2.296875 264.339844 2.257812 C 264.402344 2.175781 264.425781 2.113281 264.40625 2.070312 Z M 259.394531 31.519531 C 259.902344 41.410156 260.390625 51.671875 258.421875 57.6875 C 254.316406 70.527344 248.847656 74.980469 248.765625 75.019531 C 248.617188 75.144531 248.515625 75.246094 248.433594 75.390625 C 244.277344 76.671875 240.285156 78.488281 236.496094 80.71875 C 235.9375 81.046875 235.769531 81.75 236.097656 82.308594 C 236.425781 82.867188 237.125 83.035156 237.683594 82.707031 C 245.675781 78.039062 252.65625 76.441406 256.871094 75.90625 C 247.113281 83.351562 239.757812 93.46875 235.699219 105.050781 C 233.316406 111.789062 231.667969 120.121094 230.019531 128.140625 C 227.503906 140.65625 224.882812 153.585938 219.601562 161.445312 C 210.933594 174.324219 197.039062 183.8125 196.9375 183.917969 L 196.851562 184.0625 C 195.609375 184.777344 194.453125 185.554688 193.375 186.5 C 192.917969 186.933594 192.871094 187.675781 193.304688 188.132812 C 193.734375 188.585938 194.375 188.632812 194.851562 188.242188 C 199.328125 184.382812 205.546875 183.007812 209.304688 182.488281 C 204.515625 187.585938 203.65625 194.082031 202.777344 200.953125 C 202.007812 206.894531 201.234375 213.039062 197.636719 218.472656 C 191.984375 227.03125 182.578125 234.148438 178.894531 236.792969 C 178.980469 218.320312 181.757812 190.285156 193.113281 153.992188 C 207.765625 107.269531 245.308594 37.605469 259.171875 12.632812 C 258.753906 18.039062 259.097656 24.667969 259.394531 31.519531 Z M 226.578125 61.167969 C 209.21875 92.292969 186.714844 137.386719 177.90625 175.199219 C 171.375 203.136719 170.347656 223.875 171.308594 238.429688 C 168.183594 236.472656 161.703125 231.800781 159.6875 225.84375 C 158.546875 222.496094 157.15625 220.300781 155.839844 218.890625 C 157.921875 219.355469 159.878906 220.5 161.296875 222.117188 C 161.683594 222.59375 162.429688 222.636719 162.90625 222.25 C 163.382812 221.859375 163.425781 221.117188 163.035156 220.640625 C 162.441406 219.957031 161.761719 219.3125 161.042969 218.792969 C 160.960938 218.730469 152.808594 209.941406 149.347656 203.875 C 143.414062 193.425781 145.28125 186.683594 152.1875 166.902344 C 155.492188 157.445312 152.9375 147.898438 151.265625 143.265625 C 154.003906 144.847656 155.378906 146.589844 156.9375 148.496094 C 158.722656 150.753906 160.753906 153.300781 165.222656 155.675781 L 165.367188 155.757812 C 165.449219 155.820312 165.574219 155.863281 165.695312 155.90625 C 166.457031 156.300781 167.261719 156.675781 168.167969 157.050781 C 168.746094 157.28125 169.449219 157.039062 169.675781 156.460938 C 169.90625 155.882812 169.664062 155.179688 169.085938 154.949219 C 168.117188 154.554688 167.292969 154.136719 166.511719 153.699219 C 165.238281 152.785156 158.019531 147.136719 156.515625 137.84375 C 155.351562 130.695312 157.78125 123.113281 163.761719 115.316406 C 178.738281 95.71875 183.949219 85.113281 185.703125 80.335938 C 186.152344 81.96875 186.488281 84.425781 186.328125 88.058594 C 186.054688 93.753906 188.695312 98.367188 190.746094 101.058594 C 191.402344 102.074219 192.222656 103.007812 193.167969 103.777344 C 193.703125 104.128906 194.40625 103.988281 194.777344 103.496094 C 195.113281 103.019531 195.054688 102.382812 194.601562 101.988281 C 193.902344 101.300781 193.222656 100.554688 192.609375 99.726562 C 191.523438 97.949219 190.832031 96.023438 190.53125 93.960938 C 189.691406 88.609375 190.621094 79.035156 199.839844 63.828125 C 214.398438 39.953125 246.941406 15.691406 259.242188 7.042969 C 253.378906 15.910156 240.484375 36.179688 226.578125 61.167969 Z M 226.578125 61.167969 " fill-opacity="1" fill-rule="nonzero"/><path fill="#f1be32" d="M 264.40625 2.070312 C 264.382812 2.03125 264.363281 1.988281 264.300781 1.96875 C 264.238281 1.945312 264.28125 1.925781 264.261719 1.882812 L 264.179688 1.820312 C 264.15625 1.78125 264.097656 1.761719 264.097656 1.761719 L 264.035156 1.738281 C 263.972656 1.71875 263.953125 1.675781 263.910156 1.695312 L 263.847656 1.675781 L 263.726562 1.632812 L 263.414062 1.632812 C 263.375 1.652344 263.3125 1.632812 263.3125 1.632812 L 263.230469 1.671875 L 263.148438 1.714844 C 263.105469 1.734375 263.023438 1.777344 262.980469 1.796875 L 262.941406 1.816406 C 262.234375 2.265625 216.25 32.65625 198.007812 62.726562 C 192.554688 71.699219 189.796875 78.929688 188.71875 84.664062 C 188.417969 78.632812 186.652344 76.519531 186.425781 76.273438 C 186.117188 75.960938 185.683594 75.816406 185.230469 75.9375 C 184.773438 76.058594 184.445312 76.429688 184.359375 76.882812 C 184.359375 76.984375 183.011719 86.453125 161.953125 113.945312 C 155.453125 122.253906 152.855469 130.4375 154.140625 138.246094 C 154.441406 140.101562 154.96875 141.902344 155.683594 143.660156 C 153.832031 142 151.734375 140.667969 149.386719 139.769531 C 148.808594 139.539062 148.125 139.824219 147.894531 140.402344 C 147.792969 140.710938 147.808594 141.0625 147.953125 141.351562 C 148.015625 141.476562 154.125 154.15625 149.980469 166.089844 C 142.972656 186.179688 140.871094 193.703125 147.320312 204.980469 C 149.492188 208.75 153.226562 213.390625 155.976562 216.558594 C 154.429688 216.242188 152.800781 216.175781 151.230469 216.332031 C 150.652344 216.410156 150.195312 216.945312 150.234375 217.542969 C 150.273438 218.144531 150.703125 218.597656 151.300781 218.664062 C 151.34375 218.644531 154.992188 219.15625 157.515625 226.660156 C 160.203125 234.597656 169.382812 240.152344 171.566406 241.339844 C 171.9375 245.324219 172.417969 248.796875 172.960938 251.769531 C 175.820312 267.035156 180.867188 273.292969 181.050781 273.5625 C 181.398438 273.957031 181.976562 274.082031 182.433594 273.859375 L 182.515625 273.816406 C 182.992188 273.53125 183.222656 272.953125 183.015625 272.4375 C 182.976562 272.355469 179.453125 261.996094 178.949219 242.324219 C 178.933594 241.457031 178.894531 240.550781 178.898438 239.621094 C 181.074219 238.1875 192.734375 230.109375 199.550781 219.738281 C 203.417969 213.917969 204.253906 207.480469 205.046875 201.273438 C 205.992188 193.804688 206.914062 186.710938 213.332031 181.992188 C 213.871094 181.625 213.976562 180.902344 213.566406 180.382812 C 213.363281 180.074219 213.011719 179.886719 212.621094 179.925781 C 209.875 179.996094 207.148438 180.414062 204.484375 181.0625 C 209.414062 176.980469 216.277344 170.550781 221.472656 162.835938 C 227.023438 154.585938 229.6875 141.429688 232.246094 128.6875 C 233.871094 120.726562 235.519531 112.5 237.824219 105.90625 C 245.1875 84.972656 261.351562 75.699219 261.515625 75.617188 C 262.074219 75.289062 262.242188 74.589844 261.976562 74.050781 C 261.8125 73.71875 261.445312 73.492188 261.03125 73.488281 C 260.761719 73.46875 257.605469 73.328125 252.523438 74.398438 C 254.660156 71.746094 257.863281 66.765625 260.523438 58.503906 C 262.640625 52.050781 262.109375 41.605469 261.644531 31.488281 C 261.171875 21.890625 260.703125 11.980469 262.585938 6.519531 C 263.671875 4.542969 264.316406 3.453125 264.378906 3.371094 L 264.398438 3.308594 L 264.441406 3.1875 C 264.460938 3.125 264.460938 3.125 264.480469 3.0625 L 264.484375 2.957031 L 264.484375 2.855469 C 264.460938 2.8125 264.503906 2.792969 264.484375 2.753906 C 264.464844 2.710938 264.503906 2.691406 264.484375 2.648438 C 264.464844 2.609375 264.503906 2.585938 264.484375 2.546875 C 264.464844 2.503906 264.445312 2.464844 264.445312 2.464844 C 264.421875 2.421875 264.421875 2.421875 264.402344 2.378906 C 264.382812 2.339844 264.363281 2.296875 264.339844 2.257812 C 264.402344 2.175781 264.425781 2.113281 264.40625 2.070312 Z M 176.679688 242.519531 C 176.828125 249.703125 177.519531 256.828125 178.683594 263.871094 C 177.132812 259.695312 175.976562 255.375 175.171875 251.039062 C 172.617188 237.320312 171.429688 213.042969 180.132812 175.746094 C 188.917969 138.203125 211.339844 93.355469 228.597656 62.335938 C 234.113281 52.453125 239.441406 43.335938 244.246094 35.351562 C 227.042969 67.734375 202.207031 117.277344 190.929688 153.320312 C 178.292969 193.796875 176.207031 224.167969 176.679688 242.519531 Z M 259.394531 31.519531 C 259.863281 41.429688 260.390625 51.671875 258.382812 57.707031 C 254.273438 70.546875 248.804688 75 248.722656 75.039062 C 248.578125 75.164062 248.472656 75.265625 248.390625 75.410156 C 244.234375 76.691406 240.242188 78.507812 236.457031 80.742188 C 235.898438 81.070312 235.730469 81.769531 236.054688 82.328125 C 236.382812 82.886719 237.085938 83.054688 237.644531 82.726562 C 245.632812 78.058594 252.617188 76.460938 256.828125 75.925781 C 247.074219 83.371094 239.71875 93.492188 235.660156 105.070312 C 233.273438 111.808594 231.625 120.140625 229.976562 128.160156 C 227.460938 140.675781 224.839844 153.605469 219.558594 161.464844 C 210.890625 174.34375 197 183.835938 196.894531 183.9375 L 196.851562 184.0625 C 195.609375 184.777344 194.453125 185.554688 193.375 186.5 C 192.917969 186.933594 192.871094 187.675781 193.304688 188.132812 C 193.734375 188.585938 194.375 188.632812 194.851562 188.242188 C 199.328125 184.382812 205.546875 183.007812 209.304688 182.488281 C 204.515625 187.585938 203.65625 194.082031 202.777344 200.953125 C 202.007812 206.894531 201.234375 213.039062 197.636719 218.472656 C 191.984375 227.03125 182.578125 234.148438 178.894531 236.792969 C 178.980469 218.320312 181.757812 190.285156 193.113281 153.992188 C 207.765625 107.269531 245.308594 37.605469 259.171875 12.632812 C 258.753906 18.039062 259.097656 24.667969 259.394531 31.519531 Z M 226.621094 61.148438 C 209.257812 92.273438 186.753906 137.367188 177.90625 175.199219 C 171.375 203.136719 170.347656 223.875 171.308594 238.429688 C 168.183594 236.472656 161.703125 231.800781 159.6875 225.84375 C 158.546875 222.496094 157.15625 220.300781 155.839844 218.890625 C 157.921875 219.355469 159.878906 220.5 161.296875 222.117188 C 161.683594 222.59375 162.429688 222.636719 162.90625 222.25 C 163.382812 221.859375 163.425781 221.117188 163.035156 220.640625 C 162.441406 219.957031 161.761719 219.3125 161.042969 218.792969 C 160.960938 218.730469 152.808594 209.941406 149.347656 203.875 C 143.414062 193.425781 145.28125 186.683594 152.1875 166.902344 C 155.492188 157.445312 152.9375 147.898438 151.265625 143.265625 C 154.003906 144.847656 155.378906 146.589844 156.9375 148.496094 C 158.722656 150.753906 160.753906 153.300781 165.222656 155.675781 L 165.367188 155.757812 C 165.449219 155.820312 165.574219 155.863281 165.695312 155.90625 C 166.457031 156.300781 167.261719 156.675781 168.167969 157.050781 C 168.746094 157.28125 169.449219 157.039062 169.675781 156.460938 C 169.90625 155.882812 169.664062 155.179688 169.085938 154.949219 C 168.117188 154.554688 167.292969 154.136719 166.511719 153.699219 C 165.238281 152.785156 158.019531 147.136719 156.515625 137.84375 C 155.351562 130.695312 157.78125 123.113281 163.761719 115.316406 C 178.738281 95.71875 183.949219 85.113281 185.703125 80.335938 C 186.152344 81.96875 186.488281 84.425781 186.328125 88.058594 C 186.054688 93.753906 188.695312 98.367188 190.746094 101.058594 C 191.402344 102.074219 192.222656 103.007812 193.167969 103.777344 C 193.703125 104.128906 194.40625 103.988281 194.777344 103.496094 C 195.113281 103.019531 195.054688 102.382812 194.601562 101.988281 C 193.902344 101.300781 193.222656 100.554688 192.609375 99.726562 C 191.523438 97.949219 190.832031 96.023438 190.53125 93.960938 C 189.691406 88.609375 190.621094 79.035156 199.839844 63.828125 C 214.398438 39.953125 246.941406 15.691406 259.242188 7.042969 C 253.378906 15.910156 240.484375 36.179688 226.621094 61.148438 Z M 226.621094 61.148438 " fill-opacity="1" fill-rule="nonzero"/></g></g></g><g fill="#f1be32" fill-opacity="1"><g transform="translate(14.276401, 351.288387)"><g><path d="M 25.5625 -44.875 C 25.46875 -41.78125 25.421875 -38.671875 25.421875 -35.546875 C 25.421875 -32.421875 25.421875 -29.265625 25.421875 -26.078125 L 25.421875 -22.515625 C 25.421875 -19.367188 25.421875 -16.242188 25.421875 -13.140625 C 25.421875 -10.046875 25.46875 -6.925781 25.5625 -3.78125 L 32.96875 -2.984375 L 32.96875 0 L 10.96875 0 L 10.96875 -2.984375 L 18.375 -3.78125 C 18.46875 -6.832031 18.515625 -9.914062 18.515625 -13.03125 C 18.515625 -16.15625 18.515625 -19.316406 18.515625 -22.515625 L 18.515625 -26.078125 C 18.515625 -29.222656 18.515625 -32.351562 18.515625 -35.46875 C 18.515625 -38.59375 18.46875 -41.726562 18.375 -44.875 L 7.265625 -44.875 L 5.671875 -35.59375 L 1.453125 -35.59375 L 2.03125 -48.59375 L 41.984375 -48.59375 L 42.484375 -35.59375 L 38.34375 -35.59375 L 36.671875 -44.875 Z M 25.5625 -44.875 "/></g></g></g><g fill="#f1be32" fill-opacity="1"><g transform="translate(58.211308, 351.288387)"><g><path d="M 23.3125 -20.703125 C 25.050781 -20.703125 26.210938 -21.0625 26.796875 -21.78125 C 27.378906 -22.507812 27.671875 -23.40625 27.671875 -24.46875 C 27.671875 -25.488281 27.460938 -26.46875 27.046875 -27.40625 C 26.640625 -28.351562 26.082031 -29.191406 25.375 -29.921875 C 24.675781 -30.648438 23.851562 -31.226562 22.90625 -31.65625 C 21.96875 -32.09375 20.941406 -32.3125 19.828125 -32.3125 C 18.804688 -32.3125 17.75 -32.101562 16.65625 -31.6875 C 15.570312 -31.28125 14.582031 -30.601562 13.6875 -29.65625 C 12.789062 -28.71875 12.015625 -27.507812 11.359375 -26.03125 C 10.710938 -24.5625 10.289062 -22.785156 10.09375 -20.703125 Z M 9.953125 -17.578125 C 10.046875 -13.078125 11.15625 -9.613281 13.28125 -7.1875 C 15.414062 -4.769531 18.226562 -3.5625 21.71875 -3.5625 C 24.039062 -3.5625 25.972656 -4.046875 27.515625 -5.015625 C 29.066406 -5.984375 30.5 -7.238281 31.8125 -8.78125 L 33.546875 -7.40625 C 32.296875 -4.789062 30.492188 -2.71875 28.140625 -1.1875 C 25.796875 0.332031 22.953125 1.09375 19.609375 1.09375 C 17.140625 1.09375 14.910156 0.679688 12.921875 -0.140625 C 10.941406 -0.960938 9.25 -2.160156 7.84375 -3.734375 C 6.4375 -5.304688 5.34375 -7.207031 4.5625 -9.4375 C 3.789062 -11.664062 3.40625 -14.160156 3.40625 -16.921875 C 3.40625 -19.679688 3.84375 -22.207031 4.71875 -24.5 C 5.59375 -26.800781 6.789062 -28.773438 8.3125 -30.421875 C 9.84375 -32.078125 11.625 -33.363281 13.65625 -34.28125 C 15.6875 -35.195312 17.835938 -35.65625 20.109375 -35.65625 C 22.003906 -35.65625 23.785156 -35.335938 25.453125 -34.703125 C 27.117188 -34.078125 28.554688 -33.160156 29.765625 -31.953125 C 30.984375 -30.742188 31.941406 -29.265625 32.640625 -27.515625 C 33.347656 -25.773438 33.703125 -23.816406 33.703125 -21.640625 C 33.703125 -20.816406 33.648438 -20.066406 33.546875 -19.390625 C 33.453125 -18.710938 33.332031 -18.109375 33.1875 -17.578125 Z M 9.953125 -17.578125 "/></g></g></g><g fill="#f1be32" fill-opacity="1"><g transform="translate(95.247361, 351.288387)"><g><path d="M 18.734375 -20.109375 C 22.410156 -18.753906 24.988281 -17.191406 26.46875 -15.421875 C 27.945312 -13.660156 28.6875 -11.644531 28.6875 -9.375 C 28.6875 -8.007812 28.394531 -6.695312 27.8125 -5.4375 C 27.226562 -4.1875 26.34375 -3.078125 25.15625 -2.109375 C 23.976562 -1.140625 22.503906 -0.363281 20.734375 0.21875 C 18.960938 0.800781 16.914062 1.09375 14.59375 1.09375 C 12.507812 1.09375 10.632812 0.859375 8.96875 0.390625 C 7.300781 -0.0664062 5.546875 -0.78125 3.703125 -1.75 L 3.484375 -9.65625 L 7.484375 -9.65625 L 8.859375 -3.40625 C 10.554688 -2.632812 12.519531 -2.25 14.75 -2.25 C 17.5 -2.25 19.550781 -2.753906 20.90625 -3.765625 C 22.269531 -4.785156 22.953125 -6.144531 22.953125 -7.84375 C 22.953125 -9.394531 22.378906 -10.628906 21.234375 -11.546875 C 20.097656 -12.460938 18.367188 -13.359375 16.046875 -14.234375 L 12.703125 -15.46875 C 10.046875 -16.4375 7.914062 -17.707031 6.3125 -19.28125 C 4.71875 -20.851562 3.921875 -22.800781 3.921875 -25.125 C 3.921875 -26.53125 4.222656 -27.863281 4.828125 -29.125 C 5.429688 -30.382812 6.273438 -31.5 7.359375 -32.46875 C 8.453125 -33.4375 9.785156 -34.207031 11.359375 -34.78125 C 12.929688 -35.363281 14.6875 -35.65625 16.625 -35.65625 C 18.613281 -35.65625 20.40625 -35.398438 22 -34.890625 C 23.601562 -34.390625 25.203125 -33.65625 26.796875 -32.6875 L 26.515625 -25.28125 L 22.734375 -25.28125 L 21.640625 -31.078125 C 19.898438 -31.898438 18.207031 -32.3125 16.5625 -32.3125 C 14.332031 -32.3125 12.644531 -31.835938 11.5 -30.890625 C 10.363281 -29.953125 9.796875 -28.660156 9.796875 -27.015625 C 9.796875 -25.566406 10.289062 -24.414062 11.28125 -23.5625 C 12.28125 -22.71875 14.039062 -21.835938 16.5625 -20.921875 Z M 18.734375 -20.109375 "/></g></g></g><g fill="#f1be32" fill-opacity="1"><g transform="translate(126.836924, 351.288387)"><g><path d="M 23.453125 -3.125 C 22.535156 -1.914062 21.335938 -0.972656 19.859375 -0.296875 C 18.378906 0.378906 16.722656 0.71875 14.890625 0.71875 C 12.316406 0.71875 10.289062 0.0546875 8.8125 -1.265625 C 7.34375 -2.597656 6.609375 -4.691406 6.609375 -7.546875 C 6.609375 -8.472656 6.617188 -9.382812 6.640625 -10.28125 C 6.671875 -11.175781 6.6875 -12.320312 6.6875 -13.71875 L 6.6875 -30.5 L 0.65625 -30.5 L 0.65625 -33.703125 L 7.125 -34.5 L 8.9375 -44.375 L 13.359375 -44.375 L 13 -34.359375 L 22.734375 -34.359375 L 22.734375 -30.5 L 12.859375 -30.5 L 12.859375 -8.421875 C 12.859375 -6.535156 13.207031 -5.164062 13.90625 -4.3125 C 14.601562 -3.46875 15.582031 -3.046875 16.84375 -3.046875 C 18.300781 -3.046875 19.925781 -3.722656 21.71875 -5.078125 Z M 23.453125 -3.125 "/></g></g></g><g fill="#f1be32" fill-opacity="1"><g transform="translate(150.510944, 351.288387)"><g><path d="M 55.703125 -44.8125 C 55.609375 -41.757812 55.5625 -38.671875 55.5625 -35.546875 C 55.5625 -32.421875 55.5625 -29.265625 55.5625 -26.078125 L 55.5625 -22.515625 C 55.5625 -19.367188 55.5625 -16.242188 55.5625 -13.140625 C 55.5625 -10.046875 55.609375 -6.925781 55.703125 -3.78125 L 62.390625 -2.984375 L 62.390625 0 L 42.5625 0 L 42.5625 -2.984375 L 48.65625 -3.703125 C 48.75 -6.804688 48.796875 -9.914062 48.796875 -13.03125 C 48.796875 -16.15625 48.796875 -19.316406 48.796875 -22.515625 L 48.796875 -37.90625 L 32.09375 0 L 29.84375 0 L 13.078125 -38.421875 L 13.078125 -3.921875 L 19.09375 -2.984375 L 19.09375 0 L 2.765625 0 L 2.765625 -2.984375 L 9.375 -3.921875 L 9.375 -44.8125 L 2.828125 -45.609375 L 2.828125 -48.59375 L 15.765625 -48.59375 L 32.609375 -9.59375 L 50.03125 -48.59375 L 62.390625 -48.59375 L 62.390625 -45.609375 Z M 55.703125 -44.8125 "/></g></g></g><g fill="#f1be32" fill-opacity="1"><g transform="translate(216.086536, 351.288387)"><g><path d="M 23.53125 -18.8125 C 22.269531 -18.46875 21.046875 -18.101562 19.859375 -17.71875 C 18.671875 -17.332031 17.691406 -16.992188 16.921875 -16.703125 C 15.328125 -16.078125 14.054688 -15.4375 13.109375 -14.78125 C 12.160156 -14.125 11.441406 -13.476562 10.953125 -12.84375 C 10.472656 -12.21875 10.160156 -11.585938 10.015625 -10.953125 C 9.867188 -10.328125 9.796875 -9.75 9.796875 -9.21875 C 9.796875 -8.25 9.929688 -7.472656 10.203125 -6.890625 C 10.472656 -6.316406 10.800781 -5.8125 11.1875 -5.375 C 12.300781 -4.257812 13.773438 -3.703125 15.609375 -3.703125 C 16.191406 -3.703125 16.75 -3.757812 17.28125 -3.875 C 17.8125 -4 18.367188 -4.21875 18.953125 -4.53125 C 19.535156 -4.851562 20.1875 -5.265625 20.90625 -5.765625 C 21.632812 -6.273438 22.507812 -6.894531 23.53125 -7.625 Z M 36.609375 -3.125 C 35.785156 -1.570312 34.890625 -0.539062 33.921875 -0.03125 C 32.953125 0.46875 31.882812 0.71875 30.71875 0.71875 C 28.6875 0.71875 27.085938 0.222656 25.921875 -0.765625 C 24.765625 -1.753906 24.015625 -3.070312 23.671875 -4.71875 C 22.703125 -3.75 21.804688 -2.898438 20.984375 -2.171875 C 20.160156 -1.453125 19.335938 -0.847656 18.515625 -0.359375 C 17.691406 0.117188 16.84375 0.476562 15.96875 0.71875 C 15.101562 0.96875 14.140625 1.09375 13.078125 1.09375 C 11.765625 1.09375 10.515625 0.894531 9.328125 0.5 C 8.140625 0.113281 7.097656 -0.460938 6.203125 -1.234375 C 5.304688 -2.003906 4.601562 -2.957031 4.09375 -4.09375 C 3.59375 -5.238281 3.34375 -6.5625 3.34375 -8.0625 C 3.34375 -9.082031 3.507812 -10.070312 3.84375 -11.03125 C 4.1875 -12 4.789062 -12.929688 5.65625 -13.828125 C 6.53125 -14.722656 7.753906 -15.617188 9.328125 -16.515625 C 10.898438 -17.410156 12.921875 -18.296875 15.390625 -19.171875 C 16.503906 -19.554688 17.773438 -19.953125 19.203125 -20.359375 C 20.640625 -20.773438 22.082031 -21.175781 23.53125 -21.5625 L 23.53125 -23.53125 C 23.53125 -25.269531 23.394531 -26.707031 23.125 -27.84375 C 22.863281 -28.988281 22.46875 -29.882812 21.9375 -30.53125 C 21.40625 -31.1875 20.710938 -31.644531 19.859375 -31.90625 C 19.015625 -32.175781 17.988281 -32.3125 16.78125 -32.3125 C 16.25 -32.3125 15.675781 -32.285156 15.0625 -32.234375 C 14.457031 -32.191406 13.796875 -32.097656 13.078125 -31.953125 L 11.625 -26.875 C 10.945312 -24.550781 9.640625 -23.390625 7.703125 -23.390625 C 6.679688 -23.390625 5.878906 -23.664062 5.296875 -24.21875 C 4.722656 -24.78125 4.382812 -25.546875 4.28125 -26.515625 C 4.957031 -29.265625 6.554688 -31.472656 9.078125 -33.140625 C 11.597656 -34.816406 14.722656 -35.65625 18.453125 -35.65625 C 22.273438 -35.65625 25.101562 -34.6875 26.9375 -32.75 C 28.78125 -30.8125 29.703125 -27.519531 29.703125 -22.875 L 29.703125 -7.328125 C 29.703125 -4.472656 30.5 -3.046875 32.09375 -3.046875 C 32.675781 -3.046875 33.1875 -3.175781 33.625 -3.4375 C 34.0625 -3.707031 34.445312 -3.988281 34.78125 -4.28125 L 35.15625 -4.71875 Z M 36.609375 -3.125 "/></g></g></g><g fill="#f1be32" fill-opacity="1"><g transform="translate(253.122589, 351.288387)"><g><path d="M 39.796875 -2.609375 L 39.796875 0 L 29.921875 0 L 18.734375 -18.015625 L 13.875 -13.078125 C 13.875 -11.523438 13.882812 -9.945312 13.90625 -8.34375 C 13.925781 -6.75 13.960938 -5.175781 14.015625 -3.625 L 19.75 -2.609375 L 19.75 0 L 1.890625 0 L 1.890625 -2.609375 L 7.625 -3.625 C 7.675781 -5.5625 7.710938 -7.507812 7.734375 -9.46875 C 7.753906 -11.4375 7.765625 -13.363281 7.765625 -15.25 L 7.765625 -46.40625 L 1.8125 -47.140625 L 1.8125 -49.671875 L 13.140625 -52.9375 L 14.15625 -52.359375 L 13.875 -42.046875 L 13.875 -17.28125 L 26.65625 -30.578125 L 21.359375 -31.375 L 21.359375 -34.359375 L 37.90625 -34.359375 L 37.90625 -31.375 L 30.9375 -30.4375 L 23.015625 -22.375 L 35 -3.484375 Z M 39.796875 -2.609375 "/></g></g></g><g fill="#f1be32" fill-opacity="1"><g transform="translate(292.91818, 351.288387)"><g><path d="M 23.3125 -20.703125 C 25.050781 -20.703125 26.210938 -21.0625 26.796875 -21.78125 C 27.378906 -22.507812 27.671875 -23.40625 27.671875 -24.46875 C 27.671875 -25.488281 27.460938 -26.46875 27.046875 -27.40625 C 26.640625 -28.351562 26.082031 -29.191406 25.375 -29.921875 C 24.675781 -30.648438 23.851562 -31.226562 22.90625 -31.65625 C 21.96875 -32.09375 20.941406 -32.3125 19.828125 -32.3125 C 18.804688 -32.3125 17.75 -32.101562 16.65625 -31.6875 C 15.570312 -31.28125 14.582031 -30.601562 13.6875 -29.65625 C 12.789062 -28.71875 12.015625 -27.507812 11.359375 -26.03125 C 10.710938 -24.5625 10.289062 -22.785156 10.09375 -20.703125 Z M 9.953125 -17.578125 C 10.046875 -13.078125 11.15625 -9.613281 13.28125 -7.1875 C 15.414062 -4.769531 18.226562 -3.5625 21.71875 -3.5625 C 24.039062 -3.5625 25.972656 -4.046875 27.515625 -5.015625 C 29.066406 -5.984375 30.5 -7.238281 31.8125 -8.78125 L 33.546875 -7.40625 C 32.296875 -4.789062 30.492188 -2.71875 28.140625 -1.1875 C 25.796875 0.332031 22.953125 1.09375 19.609375 1.09375 C 17.140625 1.09375 14.910156 0.679688 12.921875 -0.140625 C 10.941406 -0.960938 9.25 -2.160156 7.84375 -3.734375 C 6.4375 -5.304688 5.34375 -7.207031 4.5625 -9.4375 C 3.789062 -11.664062 3.40625 -14.160156 3.40625 -16.921875 C 3.40625 -19.679688 3.84375 -22.207031 4.71875 -24.5 C 5.59375 -26.800781 6.789062 -28.773438 8.3125 -30.421875 C 9.84375 -32.078125 11.625 -33.363281 13.65625 -34.28125 C 15.6875 -35.195312 17.835938 -35.65625 20.109375 -35.65625 C 22.003906 -35.65625 23.785156 -35.335938 25.453125 -34.703125 C 27.117188 -34.078125 28.554688 -33.160156 29.765625 -31.953125 C 30.984375 -30.742188 31.941406 -29.265625 32.640625 -27.515625 C 33.347656 -25.773438 33.703125 -23.816406 33.703125 -21.640625 C 33.703125 -20.816406 33.648438 -20.066406 33.546875 -19.390625 C 33.453125 -18.710938 33.332031 -18.109375 33.1875 -17.578125 Z M 9.953125 -17.578125 "/></g></g></g><g fill="#f1be32" fill-opacity="1"><g transform="translate(329.954233, 351.288387)"><g><path d="M 14.53125 -26.4375 C 15.78125 -29.34375 17.335938 -31.601562 19.203125 -33.21875 C 21.066406 -34.84375 22.992188 -35.65625 24.984375 -35.65625 C 26.046875 -35.65625 27.070312 -35.375 28.0625 -34.8125 C 29.0625 -34.257812 29.679688 -33.351562 29.921875 -32.09375 C 29.921875 -30.882812 29.507812 -29.925781 28.6875 -29.21875 C 27.863281 -28.519531 26.820312 -28.171875 25.5625 -28.171875 C 24.0625 -28.171875 22.679688 -28.78125 21.421875 -30 L 20.921875 -30.5 C 19.421875 -29.382812 18.160156 -28.0625 17.140625 -26.53125 C 16.117188 -25.007812 15.269531 -23.160156 14.59375 -20.984375 L 14.59375 -15.25 C 14.59375 -13.65625 14.601562 -11.789062 14.625 -9.65625 C 14.65625 -7.53125 14.695312 -5.546875 14.75 -3.703125 L 20.703125 -2.609375 L 20.703125 0 L 3.125 0 L 3.125 -2.609375 L 8.359375 -3.5625 C 8.398438 -5.394531 8.429688 -7.390625 8.453125 -9.546875 C 8.484375 -11.703125 8.5 -13.601562 8.5 -15.25 L 8.5 -18.953125 C 8.5 -20.941406 8.472656 -22.585938 8.421875 -23.890625 C 8.378906 -25.203125 8.332031 -26.582031 8.28125 -28.03125 L 2.546875 -28.6875 L 2.546875 -31.234375 L 12.640625 -35.65625 L 13.71875 -34.9375 Z M 14.53125 -26.4375 "/></g></g></g></svg>