<svg xmlns="http://www.w3.org/2000/svg" xmlns:xlink="http://www.w3.org/1999/xlink" width="500" zoomAndPan="magnify" viewBox="0 0 375 374.999991" height="500" preserveAspectRatio="xMidYMid meet" version="1.0"><defs><g/><clipPath id="9a6e957821"><path d="M 12.542969 104 L 179 104 L 179 287.046875 L 12.542969 287.046875 Z M 12.542969 104 " clip-rule="nonzero"/></clipPath><clipPath id="d58cb965ee"><path d="M 175 104 L 341.589844 104 L 341.589844 287.046875 L 175 287.046875 Z M 175 104 " clip-rule="nonzero"/></clipPath><clipPath id="3e9eb72ad7"><path d="M 27 91 L 179 91 L 179 287.046875 L 27 287.046875 Z M 27 91 " clip-rule="nonzero"/></clipPath><clipPath id="06db69c84b"><path d="M 175 91 L 328 91 L 328 287.046875 L 175 287.046875 Z M 175 91 " clip-rule="nonzero"/></clipPath><clipPath id="1ddef9acea"><path d="M 41 77.792969 L 179 77.792969 L 179 287.046875 L 41 287.046875 Z M 41 77.792969 " clip-rule="nonzero"/></clipPath><clipPath id="e2e56810ab"><path d="M 172 77.792969 L 310 77.792969 L 310 287.046875 L 172 287.046875 Z M 172 77.792969 " clip-rule="nonzero"/></clipPath><clipPath id="245e423976"><path d="M 143 1 L 265 1 L 265 274 L 143 274 Z M 143 1 " clip-rule="nonzero"/></clipPath><clipPath id="fe8d3a5bd0"><path d="M 86.304688 88.671875 L 264.394531 0.679688 L 357.085938 188.289062 L 178.996094 276.277344 Z M 86.304688 88.671875 " clip-rule="nonzero"/></clipPath><clipPath id="0dcd94b9f5"><path d="M 86.304688 88.671875 L 264.394531 0.679688 L 357.085938 188.289062 L 178.996094 276.277344 Z M 86.304688 88.671875 " clip-rule="nonzero"/></clipPath></defs><rect x="-37.5" width="450" fill="#ffffff" y="-37.499999" height="449.999989" fill-opacity="1"/><rect x="-37.5" width="450" fill="#ffffff" y="-37.499999" height="449.999989" fill-opacity="1"/><path fill="#ffffff" d="M 177.335938 285.878906 L 14.191406 283.847656 L 14.191406 106.183594 L 177.335938 106.183594 Z M 177.335938 285.878906 " fill-opacity="1" fill-rule="nonzero"/><g clip-path="url(#9a6e957821)"><path fill="#f1be32" d="M 177.335938 287.527344 C 177.332031 287.527344 177.324219 287.527344 177.316406 287.527344 L 14.171875 285.496094 C 13.265625 285.484375 12.542969 284.75 12.542969 283.847656 L 12.542969 106.183594 C 12.542969 105.277344 13.28125 104.539062 14.191406 104.539062 L 177.335938 104.539062 C 178.246094 104.539062 178.984375 105.277344 178.984375 106.183594 L 178.984375 285.878906 C 178.984375 286.320312 178.808594 286.742188 178.496094 287.050781 C 178.1875 287.355469 177.773438 287.527344 177.335938 287.527344 Z M 15.84375 282.214844 L 175.691406 284.203125 L 175.691406 107.832031 L 15.84375 107.832031 Z M 15.84375 282.214844 " fill-opacity="1" fill-rule="nonzero"/></g><path fill="#ffffff" d="M 177.335938 285.878906 L 340.484375 283.847656 L 340.484375 106.183594 L 177.335938 106.183594 Z M 177.335938 285.878906 " fill-opacity="1" fill-rule="nonzero"/><g clip-path="url(#d58cb965ee)"><path fill="#f1be32" d="M 177.335938 287.527344 C 176.902344 287.527344 176.488281 287.355469 176.175781 287.050781 C 175.867188 286.742188 175.691406 286.320312 175.691406 285.878906 L 175.691406 106.183594 C 175.691406 105.277344 176.429688 104.539062 177.335938 104.539062 L 340.484375 104.539062 C 341.394531 104.539062 342.132812 105.277344 342.132812 106.183594 L 342.132812 283.847656 C 342.132812 284.75 341.40625 285.488281 340.503906 285.496094 L 177.363281 287.527344 C 177.351562 287.527344 177.34375 287.527344 177.335938 287.527344 Z M 178.992188 107.832031 L 178.992188 284.203125 L 338.835938 282.214844 L 338.835938 107.832031 Z M 178.992188 107.832031 " fill-opacity="1" fill-rule="nonzero"/></g><path fill="#ffffff" d="M 177.335938 285.878906 C 177.335938 285.878906 137.609375 272.789062 103.0625 272.789062 C 68.511719 272.789062 28.785156 272.789062 28.785156 272.789062 L 28.785156 92.875 C 28.785156 92.875 50.167969 92.875 97.832031 92.875 C 145.5 92.875 177.335938 105.96875 177.335938 105.96875 Z M 177.335938 285.878906 " fill-opacity="1" fill-rule="nonzero"/><g clip-path="url(#3e9eb72ad7)"><path fill="#f1be32" d="M 177.335938 287.527344 C 177.167969 287.527344 176.988281 287.5 176.824219 287.441406 C 176.429688 287.308594 136.9375 274.433594 103.0625 274.433594 L 28.777344 274.433594 C 27.867188 274.433594 27.128906 273.695312 27.128906 272.789062 L 27.128906 92.875 C 27.128906 91.964844 27.867188 91.226562 28.777344 91.226562 L 97.828125 91.226562 C 145.269531 91.226562 177.640625 104.3125 177.964844 104.445312 C 178.582031 104.703125 178.984375 105.300781 178.984375 105.972656 L 178.984375 285.878906 C 178.984375 286.40625 178.726562 286.90625 178.300781 287.214844 C 178.023438 287.421875 177.679688 287.527344 177.335938 287.527344 Z M 30.425781 271.132812 L 103.054688 271.132812 C 132.875 271.132812 166.882812 280.929688 175.683594 283.625 L 175.683594 107.101562 C 169.875 104.925781 139.894531 94.53125 97.828125 94.53125 L 30.425781 94.53125 Z M 30.425781 271.132812 " fill-opacity="1" fill-rule="nonzero"/></g><path fill="#ffffff" d="M 177.335938 285.878906 C 177.335938 285.878906 217.066406 272.789062 251.613281 272.789062 C 286.160156 272.789062 325.890625 272.789062 325.890625 272.789062 L 325.890625 92.875 C 325.890625 92.875 304.507812 92.875 256.839844 92.875 C 209.175781 92.875 177.335938 105.96875 177.335938 105.96875 Z M 177.335938 285.878906 " fill-opacity="1" fill-rule="nonzero"/><g clip-path="url(#06db69c84b)"><path fill="#f1be32" d="M 177.335938 287.527344 C 176.996094 287.527344 176.660156 287.421875 176.367188 287.210938 C 175.941406 286.898438 175.683594 286.398438 175.683594 285.871094 L 175.683594 105.96875 C 175.683594 105.300781 176.085938 104.695312 176.703125 104.4375 C 177.027344 104.304688 209.394531 91.222656 256.839844 91.222656 L 325.890625 91.222656 C 326.800781 91.222656 327.539062 91.960938 327.539062 92.871094 L 327.539062 272.773438 C 327.539062 273.683594 326.800781 274.421875 325.890625 274.421875 L 251.613281 274.421875 C 217.726562 274.421875 178.246094 287.300781 177.851562 287.425781 C 177.6875 287.5 177.515625 287.527344 177.335938 287.527344 Z M 178.992188 107.101562 L 178.992188 283.628906 C 187.792969 280.933594 221.800781 271.140625 251.621094 271.140625 L 324.25 271.140625 L 324.25 94.53125 L 256.847656 94.53125 C 214.773438 94.53125 184.792969 104.925781 178.992188 107.101562 Z M 178.992188 107.101562 " fill-opacity="1" fill-rule="nonzero"/></g><path fill="#ffffff" d="M 177.335938 285.878906 C 177.335938 285.878906 151.867188 259.371094 117.320312 259.371094 C 82.769531 259.371094 43.042969 259.371094 43.042969 259.371094 L 43.042969 79.460938 C 43.042969 79.460938 64.425781 79.460938 112.089844 79.460938 C 159.757812 79.460938 177.335938 105.96875 177.335938 105.96875 Z M 177.335938 285.878906 " fill-opacity="1" fill-rule="nonzero"/><g clip-path="url(#1ddef9acea)"><path fill="#f1be32" d="M 177.335938 287.527344 C 176.894531 287.527344 176.46875 287.347656 176.152344 287.019531 C 175.902344 286.761719 150.738281 261.019531 117.324219 261.019531 L 43.042969 261.019531 C 42.132812 261.019531 41.394531 260.28125 41.394531 259.371094 L 41.394531 79.460938 C 41.394531 78.550781 42.132812 77.8125 43.042969 77.8125 L 112.089844 77.8125 C 160.09375 77.8125 177.976562 103.945312 178.707031 105.058594 C 178.886719 105.328125 178.984375 105.644531 178.984375 105.96875 L 178.984375 285.871094 C 178.984375 286.542969 178.578125 287.152344 177.949219 287.402344 C 177.753906 287.488281 177.546875 287.527344 177.335938 287.527344 Z M 44.691406 257.71875 L 117.320312 257.71875 C 145.902344 257.71875 168.054688 275.140625 175.683594 282.023438 L 175.683594 106.5 C 173.285156 103.296875 155.089844 81.117188 112.089844 81.117188 L 44.691406 81.117188 Z M 44.691406 257.71875 " fill-opacity="1" fill-rule="nonzero"/></g><path fill="#ffffff" d="M 173.710938 285.878906 C 173.710938 285.878906 199.183594 259.371094 233.730469 259.371094 C 268.277344 259.371094 308.007812 259.371094 308.007812 259.371094 L 308.007812 79.460938 C 308.007812 79.460938 286.625 79.460938 238.957031 79.460938 C 191.292969 79.460938 173.710938 105.96875 173.710938 105.96875 Z M 173.710938 285.878906 " fill-opacity="1" fill-rule="nonzero"/><g clip-path="url(#e2e56810ab)"><path fill="#f1be32" d="M 173.710938 287.527344 C 173.5 287.527344 173.296875 287.488281 173.097656 287.40625 C 172.472656 287.15625 172.0625 286.550781 172.0625 285.878906 L 172.0625 105.96875 C 172.0625 105.644531 172.15625 105.328125 172.339844 105.058594 C 173.074219 103.945312 190.957031 77.8125 238.957031 77.8125 L 308.007812 77.8125 C 308.917969 77.8125 309.65625 78.550781 309.65625 79.460938 L 309.65625 259.367188 C 309.65625 260.277344 308.917969 261.015625 308.007812 261.015625 L 233.722656 261.015625 C 200.265625 261.015625 175.148438 286.753906 174.898438 287.011719 C 174.582031 287.347656 174.152344 287.527344 173.710938 287.527344 Z M 175.359375 106.5 L 175.359375 282.023438 C 182.992188 275.140625 205.140625 257.71875 233.722656 257.71875 L 306.351562 257.71875 L 306.351562 81.117188 L 238.957031 81.117188 C 195.953125 81.117188 177.757812 103.296875 175.359375 106.5 Z M 175.359375 106.5 " fill-opacity="1" fill-rule="nonzero"/></g><g clip-path="url(#245e423976)"><g clip-path="url(#fe8d3a5bd0)"><g clip-path="url(#0dcd94b9f5)"><path fill="#ffffff" d="M 264.398438 2.070312 C 264.398438 2.070312 264.417969 2.113281 264.417969 2.113281 C 264.4375 2.15625 264.457031 2.195312 264.480469 2.238281 C 264.5 2.277344 264.5 2.277344 264.519531 2.320312 C 264.539062 2.363281 264.5625 2.402344 264.5625 2.402344 C 264.582031 2.445312 264.582031 2.445312 264.558594 2.507812 C 264.582031 2.546875 264.601562 2.589844 264.558594 2.609375 C 264.582031 2.652344 264.539062 2.671875 264.558594 2.710938 L 264.558594 2.917969 C 264.539062 2.980469 264.539062 2.980469 264.515625 3.042969 L 264.476562 3.167969 L 264.453125 3.226562 C 264.390625 3.308594 263.765625 4.441406 262.664062 6.378906 C 260.800781 11.878906 261.25 21.746094 261.71875 31.34375 C 262.1875 41.460938 262.714844 51.90625 260.601562 58.355469 C 257.941406 66.621094 254.738281 71.597656 252.601562 74.25 C 257.621094 73.160156 260.839844 73.320312 261.109375 73.34375 C 261.746094 73.386719 262.21875 73.925781 262.175781 74.566406 C 262.152344 74.9375 261.921875 75.308594 261.613281 75.511719 C 261.449219 75.59375 245.304688 84.90625 237.941406 105.84375 C 235.597656 112.457031 233.949219 120.683594 232.363281 128.621094 C 229.804688 141.363281 227.140625 154.519531 221.59375 162.769531 C 216.394531 170.484375 209.535156 176.910156 204.601562 180.996094 C 207.246094 180.304688 209.996094 179.925781 212.738281 179.855469 C 213.359375 179.859375 213.914062 180.359375 213.910156 180.976562 C 213.890625 181.347656 213.742188 181.675781 213.453125 181.925781 C 207.011719 186.703125 206.109375 193.734375 205.167969 201.203125 C 204.375 207.410156 203.539062 213.847656 199.671875 219.667969 C 192.832031 229.996094 181.132812 238.09375 179.023438 239.550781 C 179.015625 240.476562 179.054688 241.386719 179.070312 242.253906 C 179.574219 261.925781 183.078125 272.238281 183.136719 272.363281 C 183.34375 272.878906 183.113281 273.457031 182.636719 273.742188 L 182.46875 273.824219 C 181.972656 274.070312 181.398438 273.945312 181.027344 273.507812 C 180.800781 273.261719 175.816406 267.023438 172.917969 251.675781 C 172.375 248.703125 171.832031 245.210938 171.523438 241.246094 C 169.382812 240.039062 160.160156 234.507812 157.472656 226.566406 C 154.949219 219.0625 151.257812 218.570312 151.257812 218.570312 C 150.679688 218.546875 150.230469 218.050781 150.191406 217.453125 C 150.152344 216.851562 150.628906 216.359375 151.1875 216.238281 C 152.757812 216.082031 154.386719 216.152344 155.933594 216.46875 C 153.183594 213.296875 149.449219 208.65625 147.277344 204.890625 C 140.832031 193.609375 142.929688 186.089844 149.941406 166 C 154.144531 154.089844 147.992188 141.429688 147.933594 141.304688 C 147.644531 140.726562 147.875 140.046875 148.453125 139.757812 C 148.746094 139.617188 149.09375 139.597656 149.40625 139.703125 C 151.710938 140.621094 153.851562 141.933594 155.703125 143.589844 C 154.988281 141.832031 154.460938 140.035156 154.160156 138.175781 C 152.875 130.371094 155.472656 122.1875 161.847656 113.839844 C 182.90625 86.34375 184.230469 76.835938 184.253906 76.773438 C 184.296875 76.34375 184.609375 75.929688 185.0625 75.808594 C 185.496094 75.644531 185.929688 75.792969 186.257812 76.144531 C 186.484375 76.394531 188.269531 78.546875 188.550781 84.535156 C 189.652344 78.84375 192.410156 71.613281 197.839844 62.597656 C 216.082031 32.53125 262.042969 2.207031 262.726562 1.714844 L 262.769531 1.691406 C 262.808594 1.671875 262.894531 1.632812 262.933594 1.609375 L 263.015625 1.570312 L 263.101562 1.527344 C 263.140625 1.507812 263.203125 1.53125 263.203125 1.53125 L 263.511719 1.53125 L 263.636719 1.574219 L 263.699219 1.59375 C 263.761719 1.613281 263.78125 1.65625 263.820312 1.636719 L 263.882812 1.65625 C 263.882812 1.65625 263.964844 1.71875 263.964844 1.71875 L 264.046875 1.78125 C 264.070312 1.824219 264.070312 1.824219 264.089844 1.863281 C 264.109375 1.90625 264.128906 1.945312 264.191406 1.96875 C 264.234375 1.945312 264.234375 1.945312 264.253906 1.988281 C 264.417969 2.011719 264.398438 2.070312 264.398438 2.070312 Z M 264.398438 2.070312 " fill-opacity="1" fill-rule="nonzero"/><path fill="#ffffff" d="M 264.398438 2.070312 C 264.378906 2.03125 264.355469 1.988281 264.292969 1.96875 C 264.234375 1.949219 264.273438 1.925781 264.253906 1.886719 L 264.171875 1.824219 C 264.152344 1.78125 264.089844 1.761719 264.089844 1.761719 L 264.027344 1.738281 C 263.964844 1.71875 263.945312 1.675781 263.902344 1.699219 L 263.84375 1.675781 L 263.71875 1.636719 L 263.613281 1.636719 L 263.511719 1.632812 L 263.410156 1.632812 C 263.367188 1.652344 263.304688 1.632812 263.304688 1.632812 L 263.222656 1.675781 L 263.140625 1.714844 C 263.097656 1.734375 263.015625 1.777344 262.972656 1.796875 L 262.933594 1.816406 C 262.230469 2.269531 216.246094 32.65625 198.003906 62.722656 C 192.554688 71.695312 189.792969 78.925781 188.714844 84.660156 C 188.414062 78.632812 186.648438 76.519531 186.421875 76.269531 C 186.113281 75.957031 185.679688 75.8125 185.226562 75.933594 C 184.773438 76.054688 184.441406 76.425781 184.355469 76.878906 C 184.355469 76.980469 183.011719 86.449219 161.953125 113.941406 C 155.453125 122.25 152.855469 130.429688 154.136719 138.238281 C 154.4375 140.097656 154.964844 141.894531 155.679688 143.652344 C 153.832031 141.992188 151.730469 140.664062 149.382812 139.765625 C 148.808594 139.535156 148.125 139.820312 147.894531 140.398438 C 147.789062 140.707031 147.808594 141.058594 147.953125 141.347656 C 148.011719 141.46875 154.125 154.152344 149.980469 166.082031 C 142.972656 186.171875 140.871094 193.695312 147.320312 204.972656 C 149.488281 208.738281 153.222656 213.378906 155.972656 216.550781 C 154.429688 216.234375 152.796875 216.164062 151.226562 216.320312 C 150.648438 216.402344 150.195312 216.9375 150.230469 217.535156 C 150.269531 218.132812 150.703125 218.589844 151.300781 218.65625 C 151.339844 218.632812 154.992188 219.148438 157.515625 226.652344 C 160.203125 234.589844 169.378906 240.144531 171.5625 241.328125 C 171.9375 245.316406 172.414062 248.785156 172.957031 251.757812 C 175.816406 267.023438 180.863281 273.28125 181.046875 273.550781 C 181.398438 273.945312 181.972656 274.070312 182.429688 273.847656 L 182.511719 273.804688 C 182.988281 273.519531 183.21875 272.941406 183.015625 272.425781 C 182.972656 272.34375 179.453125 261.984375 178.945312 242.3125 C 178.929688 241.445312 178.894531 240.539062 178.898438 239.609375 C 181.070312 238.175781 192.730469 230.097656 199.546875 219.730469 C 203.414062 213.90625 204.25 207.472656 205.042969 201.265625 C 205.988281 193.796875 206.90625 186.703125 213.328125 181.984375 C 213.867188 181.617188 213.972656 180.894531 213.5625 180.375 C 213.359375 180.066406 213.007812 179.878906 212.617188 179.917969 C 209.871094 179.988281 207.144531 180.40625 204.480469 181.054688 C 209.410156 176.972656 216.273438 170.542969 221.46875 162.828125 C 227.019531 154.578125 229.679688 141.425781 232.238281 128.683594 C 233.867188 120.722656 235.515625 112.496094 237.816406 105.902344 C 245.179688 84.96875 261.34375 75.695312 261.507812 75.613281 C 262.066406 75.289062 262.238281 74.585938 261.972656 74.046875 C 261.808594 73.71875 261.4375 73.488281 261.023438 73.488281 C 260.757812 73.464844 257.597656 73.324219 252.515625 74.394531 C 254.65625 71.742188 257.855469 66.765625 260.515625 58.5 C 262.632812 52.050781 262.105469 41.605469 261.636719 31.488281 C 261.167969 21.890625 260.699219 11.980469 262.582031 6.519531 C 263.664062 4.546875 264.308594 3.453125 264.371094 3.371094 L 264.390625 3.308594 L 264.433594 3.1875 C 264.453125 3.125 264.453125 3.125 264.476562 3.0625 L 264.476562 2.855469 C 264.457031 2.816406 264.496094 2.792969 264.476562 2.753906 C 264.457031 2.710938 264.496094 2.691406 264.476562 2.648438 C 264.457031 2.609375 264.5 2.589844 264.476562 2.546875 C 264.457031 2.503906 264.4375 2.464844 264.4375 2.464844 C 264.417969 2.421875 264.417969 2.421875 264.394531 2.382812 C 264.375 2.339844 264.355469 2.296875 264.335938 2.257812 C 264.398438 2.175781 264.417969 2.113281 264.398438 2.070312 Z M 259.386719 31.519531 C 259.898438 41.410156 260.386719 51.667969 258.417969 57.6875 C 254.308594 70.523438 248.839844 74.976562 248.757812 75.019531 C 248.613281 75.140625 248.507812 75.242188 248.425781 75.386719 C 244.269531 76.667969 240.277344 78.484375 236.492188 80.71875 C 235.933594 81.046875 235.765625 81.746094 236.09375 82.304688 C 236.417969 82.863281 237.121094 83.03125 237.679688 82.703125 C 245.667969 78.035156 252.652344 76.441406 256.863281 75.902344 C 247.109375 83.347656 239.753906 93.46875 235.695312 105.046875 C 233.308594 111.785156 231.660156 120.113281 230.011719 128.136719 C 227.496094 140.652344 224.875 153.578125 219.597656 161.4375 C 210.929688 174.316406 197.035156 183.804688 196.933594 183.910156 L 196.847656 184.054688 C 195.605469 184.769531 194.449219 185.546875 193.371094 186.492188 C 192.914062 186.925781 192.867188 187.667969 193.300781 188.121094 C 193.730469 188.578125 194.371094 188.625 194.847656 188.234375 C 199.324219 184.375 205.542969 183 209.300781 182.480469 C 204.511719 187.578125 203.652344 194.074219 202.773438 200.945312 C 202.003906 206.882812 201.230469 213.03125 197.636719 218.460938 C 191.980469 227.019531 182.578125 234.136719 178.890625 236.78125 C 178.976562 218.3125 181.753906 190.277344 193.113281 153.984375 C 207.761719 107.265625 245.304688 37.605469 259.167969 12.632812 C 258.75 18.039062 259.089844 24.667969 259.386719 31.519531 Z M 226.574219 61.167969 C 209.214844 92.289062 186.710938 137.382812 177.902344 175.191406 C 171.371094 203.125 170.34375 223.863281 171.308594 238.417969 C 168.179688 236.464844 161.703125 231.789062 159.6875 225.835938 C 158.546875 222.488281 157.152344 220.292969 155.839844 218.882812 C 157.921875 219.347656 159.875 220.492188 161.292969 222.105469 C 161.683594 222.582031 162.425781 222.628906 162.902344 222.238281 C 163.378906 221.847656 163.421875 221.105469 163.035156 220.628906 C 162.4375 219.945312 161.761719 219.304688 161.039062 218.785156 C 160.957031 218.722656 152.804688 209.929688 149.347656 203.867188 C 143.410156 193.417969 145.28125 186.675781 152.183594 166.898438 C 155.492188 157.4375 152.9375 147.890625 151.265625 143.261719 C 154.003906 144.84375 155.378906 146.582031 156.9375 148.488281 C 158.722656 150.746094 160.753906 153.296875 165.21875 155.667969 L 165.363281 155.753906 C 165.445312 155.816406 165.570312 155.855469 165.695312 155.898438 C 166.457031 156.292969 167.257812 156.667969 168.164062 157.046875 C 168.742188 157.273438 169.445312 157.03125 169.675781 156.453125 C 169.90625 155.878906 169.660156 155.175781 169.082031 154.945312 C 168.117188 154.546875 167.292969 154.132812 166.507812 153.695312 C 165.234375 152.78125 158.015625 147.132812 156.511719 137.835938 C 155.351562 130.691406 157.78125 123.105469 163.761719 115.3125 C 178.734375 95.714844 183.945312 85.113281 185.703125 80.332031 C 186.148438 81.964844 186.488281 84.421875 186.324219 88.054688 C 186.050781 93.75 188.691406 98.363281 190.742188 101.054688 C 191.398438 102.070312 192.21875 103.003906 193.164062 103.773438 C 193.699219 104.125 194.402344 103.984375 194.777344 103.492188 C 195.109375 103.015625 195.050781 102.378906 194.597656 101.984375 C 193.898438 101.296875 193.222656 100.550781 192.605469 99.722656 C 191.519531 97.945312 190.828125 96.019531 190.527344 93.957031 C 189.6875 88.605469 190.621094 79.035156 199.835938 63.824219 C 214.394531 39.953125 246.933594 15.691406 259.234375 7.042969 C 253.371094 15.910156 240.480469 36.175781 226.574219 61.167969 Z M 226.574219 61.167969 " fill-opacity="1" fill-rule="nonzero"/><path fill="#f1be32" d="M 264.398438 2.070312 C 264.378906 2.03125 264.355469 1.988281 264.292969 1.96875 C 264.234375 1.949219 264.273438 1.925781 264.253906 1.886719 L 264.171875 1.824219 C 264.152344 1.78125 264.089844 1.761719 264.089844 1.761719 L 264.027344 1.738281 C 263.964844 1.71875 263.945312 1.675781 263.902344 1.699219 L 263.84375 1.675781 L 263.71875 1.636719 L 263.613281 1.636719 L 263.511719 1.632812 L 263.410156 1.632812 C 263.367188 1.652344 263.304688 1.632812 263.304688 1.632812 L 263.222656 1.675781 L 263.140625 1.714844 C 263.097656 1.734375 263.015625 1.777344 262.972656 1.796875 L 262.933594 1.816406 C 262.230469 2.269531 216.246094 32.65625 198.003906 62.722656 C 192.554688 71.695312 189.792969 78.925781 188.714844 84.660156 C 188.414062 78.632812 186.648438 76.519531 186.421875 76.269531 C 186.113281 75.957031 185.679688 75.8125 185.226562 75.933594 C 184.773438 76.054688 184.441406 76.425781 184.355469 76.878906 C 184.355469 76.980469 183.011719 86.449219 161.953125 113.941406 C 155.453125 122.25 152.855469 130.429688 154.136719 138.238281 C 154.4375 140.097656 154.964844 141.894531 155.679688 143.652344 C 153.832031 141.992188 151.730469 140.664062 149.382812 139.765625 C 148.808594 139.535156 148.125 139.820312 147.894531 140.398438 C 147.789062 140.707031 147.808594 141.058594 147.953125 141.347656 C 148.011719 141.46875 154.125 154.152344 149.980469 166.082031 C 142.972656 186.171875 140.871094 193.695312 147.320312 204.972656 C 149.488281 208.738281 153.222656 213.378906 155.972656 216.550781 C 154.429688 216.234375 152.796875 216.164062 151.226562 216.320312 C 150.648438 216.402344 150.195312 216.9375 150.230469 217.535156 C 150.269531 218.132812 150.703125 218.589844 151.300781 218.65625 C 151.339844 218.632812 154.992188 219.148438 157.515625 226.652344 C 160.203125 234.589844 169.378906 240.144531 171.5625 241.328125 C 171.9375 245.316406 172.414062 248.785156 172.957031 251.757812 C 175.816406 267.023438 180.863281 273.28125 181.046875 273.550781 C 181.398438 273.945312 181.972656 274.070312 182.429688 273.847656 L 182.511719 273.804688 C 182.988281 273.519531 183.21875 272.941406 183.015625 272.425781 C 182.972656 272.34375 179.453125 261.984375 178.945312 242.3125 C 178.929688 241.445312 178.894531 240.539062 178.898438 239.609375 C 181.070312 238.175781 192.730469 230.097656 199.546875 219.730469 C 203.414062 213.90625 204.25 207.472656 205.042969 201.265625 C 205.988281 193.796875 206.90625 186.703125 213.328125 181.984375 C 213.867188 181.617188 213.972656 180.894531 213.5625 180.375 C 213.359375 180.066406 213.007812 179.878906 212.617188 179.917969 C 209.871094 179.988281 207.144531 180.40625 204.480469 181.054688 C 209.410156 176.972656 216.273438 170.542969 221.46875 162.828125 C 227.019531 154.578125 229.679688 141.425781 232.238281 128.683594 C 233.867188 120.722656 235.515625 112.496094 237.816406 105.902344 C 245.179688 84.96875 261.34375 75.695312 261.507812 75.613281 C 262.066406 75.289062 262.238281 74.585938 261.972656 74.046875 C 261.808594 73.71875 261.4375 73.488281 261.023438 73.488281 C 260.757812 73.464844 257.597656 73.324219 252.515625 74.394531 C 254.65625 71.742188 257.855469 66.765625 260.515625 58.5 C 262.632812 52.050781 262.105469 41.605469 261.636719 31.488281 C 261.167969 21.890625 260.699219 11.980469 262.582031 6.519531 C 263.664062 4.546875 264.308594 3.453125 264.371094 3.371094 L 264.390625 3.308594 L 264.433594 3.1875 C 264.453125 3.125 264.453125 3.125 264.476562 3.0625 L 264.476562 2.855469 C 264.457031 2.816406 264.496094 2.792969 264.476562 2.753906 C 264.457031 2.710938 264.496094 2.691406 264.476562 2.648438 C 264.457031 2.609375 264.5 2.589844 264.476562 2.546875 C 264.457031 2.503906 264.4375 2.464844 264.4375 2.464844 C 264.417969 2.421875 264.417969 2.421875 264.394531 2.382812 C 264.375 2.339844 264.355469 2.296875 264.335938 2.257812 C 264.398438 2.175781 264.417969 2.113281 264.398438 2.070312 Z M 176.675781 242.507812 C 176.828125 249.691406 177.515625 256.816406 178.679688 263.859375 C 177.128906 259.683594 175.972656 255.363281 175.167969 251.027344 C 172.613281 237.308594 171.429688 213.035156 180.128906 175.738281 C 188.914062 138.199219 211.335938 93.351562 228.589844 62.332031 C 234.109375 52.453125 239.433594 43.335938 244.242188 35.347656 C 227.039062 67.730469 202.203125 117.269531 190.925781 153.316406 C 178.289062 193.789062 176.207031 224.160156 176.675781 242.507812 Z M 259.386719 31.519531 C 259.855469 41.429688 260.386719 51.667969 258.375 57.707031 C 254.269531 70.542969 248.800781 74.996094 248.714844 75.039062 C 248.570312 75.160156 248.46875 75.265625 248.382812 75.40625 C 244.230469 76.6875 240.238281 78.507812 236.449219 80.738281 C 235.890625 81.066406 235.722656 81.765625 236.050781 82.324219 C 236.378906 82.882812 237.078125 83.050781 237.636719 82.726562 C 245.625 78.058594 252.609375 76.460938 256.824219 75.921875 C 247.066406 83.367188 239.710938 93.488281 235.652344 105.066406 C 233.269531 111.804688 231.621094 120.136719 229.972656 128.15625 C 227.457031 140.671875 224.835938 153.597656 219.554688 161.457031 C 210.886719 174.335938 196.996094 183.828125 196.890625 183.929688 L 196.847656 184.054688 C 195.605469 184.769531 194.449219 185.546875 193.371094 186.492188 C 192.914062 186.925781 192.867188 187.667969 193.300781 188.121094 C 193.730469 188.578125 194.371094 188.625 194.847656 188.234375 C 199.324219 184.375 205.542969 183 209.300781 182.480469 C 204.511719 187.578125 203.652344 194.074219 202.773438 200.945312 C 202.003906 206.882812 201.230469 213.03125 197.636719 218.460938 C 191.980469 227.019531 182.578125 234.136719 178.890625 236.78125 C 178.976562 218.3125 181.753906 190.277344 193.113281 153.984375 C 207.761719 107.265625 245.304688 37.605469 259.167969 12.632812 C 258.75 18.039062 259.089844 24.667969 259.386719 31.519531 Z M 226.617188 61.144531 C 209.253906 92.269531 186.75 137.363281 177.902344 175.191406 C 171.371094 203.125 170.34375 223.863281 171.308594 238.417969 C 168.179688 236.464844 161.703125 231.789062 159.6875 225.835938 C 158.546875 222.488281 157.152344 220.292969 155.839844 218.882812 C 157.921875 219.347656 159.875 220.492188 161.292969 222.109375 C 161.683594 222.582031 162.425781 222.628906 162.902344 222.238281 C 163.378906 221.847656 163.421875 221.105469 163.035156 220.628906 C 162.4375 219.945312 161.761719 219.304688 161.039062 218.785156 C 160.957031 218.722656 152.804688 209.929688 149.347656 203.867188 C 143.410156 193.417969 145.28125 186.675781 152.183594 166.898438 C 155.492188 157.4375 152.9375 147.890625 151.265625 143.261719 C 154.003906 144.84375 155.378906 146.582031 156.9375 148.488281 C 158.722656 150.746094 160.753906 153.296875 165.21875 155.667969 L 165.363281 155.753906 C 165.445312 155.816406 165.570312 155.855469 165.695312 155.898438 C 166.457031 156.292969 167.257812 156.667969 168.164062 157.046875 C 168.742188 157.273438 169.445312 157.03125 169.675781 156.453125 C 169.90625 155.878906 169.660156 155.175781 169.082031 154.945312 C 168.117188 154.546875 167.292969 154.132812 166.507812 153.695312 C 165.234375 152.78125 158.015625 147.132812 156.511719 137.835938 C 155.351562 130.691406 157.78125 123.105469 163.761719 115.3125 C 178.734375 95.714844 183.945312 85.113281 185.703125 80.332031 C 186.148438 81.964844 186.488281 84.421875 186.324219 88.054688 C 186.050781 93.75 188.691406 98.363281 190.742188 101.054688 C 191.398438 102.070312 192.21875 103.003906 193.164062 103.773438 C 193.699219 104.125 194.402344 103.984375 194.777344 103.492188 C 195.109375 103.015625 195.050781 102.378906 194.597656 101.984375 C 193.898438 101.296875 193.222656 100.550781 192.605469 99.722656 C 191.519531 97.945312 190.828125 96.019531 190.527344 93.957031 C 189.6875 88.605469 190.621094 79.035156 199.835938 63.824219 C 214.394531 39.953125 246.933594 15.691406 259.234375 7.042969 C 253.371094 15.910156 240.480469 36.175781 226.617188 61.144531 Z M 226.617188 61.144531 " fill-opacity="1" fill-rule="nonzero"/></g></g></g><g fill="#f1be32" fill-opacity="1"><g transform="translate(14.276401, 351.288358)"><g><path d="M 25.5625 -44.875 C 25.46875 -41.78125 25.421875 -38.671875 25.421875 -35.546875 C 25.421875 -32.421875 25.421875 -29.265625 25.421875 -26.078125 L 25.421875 -22.515625 C 25.421875 -19.367188 25.421875 -16.242188 25.421875 -13.140625 C 25.421875 -10.046875 25.46875 -6.925781 25.5625 -3.78125 L 32.96875 -2.984375 L 32.96875 0 L 10.96875 0 L 10.96875 -2.984375 L 18.375 -3.78125 C 18.46875 -6.832031 18.515625 -9.914062 18.515625 -13.03125 C 18.515625 -16.15625 18.515625 -19.316406 18.515625 -22.515625 L 18.515625 -26.078125 C 18.515625 -29.222656 18.515625 -32.351562 18.515625 -35.46875 C 18.515625 -38.59375 18.46875 -41.726562 18.375 -44.875 L 7.265625 -44.875 L 5.671875 -35.59375 L 1.453125 -35.59375 L 2.03125 -48.59375 L 41.984375 -48.59375 L 42.484375 -35.59375 L 38.34375 -35.59375 L 36.671875 -44.875 Z M 25.5625 -44.875 "/></g></g></g><g fill="#f1be32" fill-opacity="1"><g transform="translate(58.211308, 351.288358)"><g><path d="M 23.3125 -20.703125 C 25.050781 -20.703125 26.210938 -21.0625 26.796875 -21.78125 C 27.378906 -22.507812 27.671875 -23.40625 27.671875 -24.46875 C 27.671875 -25.488281 27.460938 -26.46875 27.046875 -27.40625 C 26.640625 -28.351562 26.082031 -29.191406 25.375 -29.921875 C 24.675781 -30.648438 23.851562 -31.226562 22.90625 -31.65625 C 21.96875 -32.09375 20.941406 -32.3125 19.828125 -32.3125 C 18.804688 -32.3125 17.75 -32.101562 16.65625 -31.6875 C 15.570312 -31.28125 14.582031 -30.601562 13.6875 -29.65625 C 12.789062 -28.71875 12.015625 -27.507812 11.359375 -26.03125 C 10.710938 -24.5625 10.289062 -22.785156 10.09375 -20.703125 Z M 9.953125 -17.578125 C 10.046875 -13.078125 11.15625 -9.613281 13.28125 -7.1875 C 15.414062 -4.769531 18.226562 -3.5625 21.71875 -3.5625 C 24.039062 -3.5625 25.972656 -4.046875 27.515625 -5.015625 C 29.066406 -5.984375 30.5 -7.238281 31.8125 -8.78125 L 33.546875 -7.40625 C 32.296875 -4.789062 30.492188 -2.71875 28.140625 -1.1875 C 25.796875 0.332031 22.953125 1.09375 19.609375 1.09375 C 17.140625 1.09375 14.910156 0.679688 12.921875 -0.140625 C 10.941406 -0.960938 9.25 -2.160156 7.84375 -3.734375 C 6.4375 -5.304688 5.34375 -7.207031 4.5625 -9.4375 C 3.789062 -11.664062 3.40625 -14.160156 3.40625 -16.921875 C 3.40625 -19.679688 3.84375 -22.207031 4.71875 -24.5 C 5.59375 -26.800781 6.789062 -28.773438 8.3125 -30.421875 C 9.84375 -32.078125 11.625 -33.363281 13.65625 -34.28125 C 15.6875 -35.195312 17.835938 -35.65625 20.109375 -35.65625 C 22.003906 -35.65625 23.785156 -35.335938 25.453125 -34.703125 C 27.117188 -34.078125 28.554688 -33.160156 29.765625 -31.953125 C 30.984375 -30.742188 31.941406 -29.265625 32.640625 -27.515625 C 33.347656 -25.773438 33.703125 -23.816406 33.703125 -21.640625 C 33.703125 -20.816406 33.648438 -20.066406 33.546875 -19.390625 C 33.453125 -18.710938 33.332031 -18.109375 33.1875 -17.578125 Z M 9.953125 -17.578125 "/></g></g></g><g fill="#f1be32" fill-opacity="1"><g transform="translate(95.247361, 351.288358)"><g><path d="M 18.734375 -20.109375 C 22.410156 -18.753906 24.988281 -17.191406 26.46875 -15.421875 C 27.945312 -13.660156 28.6875 -11.644531 28.6875 -9.375 C 28.6875 -8.007812 28.394531 -6.695312 27.8125 -5.4375 C 27.226562 -4.1875 26.34375 -3.078125 25.15625 -2.109375 C 23.976562 -1.140625 22.503906 -0.363281 20.734375 0.21875 C 18.960938 0.800781 16.914062 1.09375 14.59375 1.09375 C 12.507812 1.09375 10.632812 0.859375 8.96875 0.390625 C 7.300781 -0.0664062 5.546875 -0.78125 3.703125 -1.75 L 3.484375 -9.65625 L 7.484375 -9.65625 L 8.859375 -3.40625 C 10.554688 -2.632812 12.519531 -2.25 14.75 -2.25 C 17.5 -2.25 19.550781 -2.753906 20.90625 -3.765625 C 22.269531 -4.785156 22.953125 -6.144531 22.953125 -7.84375 C 22.953125 -9.394531 22.378906 -10.628906 21.234375 -11.546875 C 20.097656 -12.460938 18.367188 -13.359375 16.046875 -14.234375 L 12.703125 -15.46875 C 10.046875 -16.4375 7.914062 -17.707031 6.3125 -19.28125 C 4.71875 -20.851562 3.921875 -22.800781 3.921875 -25.125 C 3.921875 -26.53125 4.222656 -27.863281 4.828125 -29.125 C 5.429688 -30.382812 6.273438 -31.5 7.359375 -32.46875 C 8.453125 -33.4375 9.785156 -34.207031 11.359375 -34.78125 C 12.929688 -35.363281 14.6875 -35.65625 16.625 -35.65625 C 18.613281 -35.65625 20.40625 -35.398438 22 -34.890625 C 23.601562 -34.390625 25.203125 -33.65625 26.796875 -32.6875 L 26.515625 -25.28125 L 22.734375 -25.28125 L 21.640625 -31.078125 C 19.898438 -31.898438 18.207031 -32.3125 16.5625 -32.3125 C 14.332031 -32.3125 12.644531 -31.835938 11.5 -30.890625 C 10.363281 -29.953125 9.796875 -28.660156 9.796875 -27.015625 C 9.796875 -25.566406 10.289062 -24.414062 11.28125 -23.5625 C 12.28125 -22.71875 14.039062 -21.835938 16.5625 -20.921875 Z M 18.734375 -20.109375 "/></g></g></g><g fill="#f1be32" fill-opacity="1"><g transform="translate(126.836924, 351.288358)"><g><path d="M 23.453125 -3.125 C 22.535156 -1.914062 21.335938 -0.972656 19.859375 -0.296875 C 18.378906 0.378906 16.722656 0.71875 14.890625 0.71875 C 12.316406 0.71875 10.289062 0.0546875 8.8125 -1.265625 C 7.34375 -2.597656 6.609375 -4.691406 6.609375 -7.546875 C 6.609375 -8.472656 6.617188 -9.382812 6.640625 -10.28125 C 6.671875 -11.175781 6.6875 -12.320312 6.6875 -13.71875 L 6.6875 -30.5 L 0.65625 -30.5 L 0.65625 -33.703125 L 7.125 -34.5 L 8.9375 -44.375 L 13.359375 -44.375 L 13 -34.359375 L 22.734375 -34.359375 L 22.734375 -30.5 L 12.859375 -30.5 L 12.859375 -8.421875 C 12.859375 -6.535156 13.207031 -5.164062 13.90625 -4.3125 C 14.601562 -3.46875 15.582031 -3.046875 16.84375 -3.046875 C 18.300781 -3.046875 19.925781 -3.722656 21.71875 -5.078125 Z M 23.453125 -3.125 "/></g></g></g><g fill="#f1be32" fill-opacity="1"><g transform="translate(150.510944, 351.288358)"><g><path d="M 55.703125 -44.8125 C 55.609375 -41.757812 55.5625 -38.671875 55.5625 -35.546875 C 55.5625 -32.421875 55.5625 -29.265625 55.5625 -26.078125 L 55.5625 -22.515625 C 55.5625 -19.367188 55.5625 -16.242188 55.5625 -13.140625 C 55.5625 -10.046875 55.609375 -6.925781 55.703125 -3.78125 L 62.390625 -2.984375 L 62.390625 0 L 42.5625 0 L 42.5625 -2.984375 L 48.65625 -3.703125 C 48.75 -6.804688 48.796875 -9.914062 48.796875 -13.03125 C 48.796875 -16.15625 48.796875 -19.316406 48.796875 -22.515625 L 48.796875 -37.90625 L 32.09375 0 L 29.84375 0 L 13.078125 -38.421875 L 13.078125 -3.921875 L 19.09375 -2.984375 L 19.09375 0 L 2.765625 0 L 2.765625 -2.984375 L 9.375 -3.921875 L 9.375 -44.8125 L 2.828125 -45.609375 L 2.828125 -48.59375 L 15.765625 -48.59375 L 32.609375 -9.59375 L 50.03125 -48.59375 L 62.390625 -48.59375 L 62.390625 -45.609375 Z M 55.703125 -44.8125 "/></g></g></g><g fill="#f1be32" fill-opacity="1"><g transform="translate(216.086536, 351.288358)"><g><path d="M 23.53125 -18.8125 C 22.269531 -18.46875 21.046875 -18.101562 19.859375 -17.71875 C 18.671875 -17.332031 17.691406 -16.992188 16.921875 -16.703125 C 15.328125 -16.078125 14.054688 -15.4375 13.109375 -14.78125 C 12.160156 -14.125 11.441406 -13.476562 10.953125 -12.84375 C 10.472656 -12.21875 10.160156 -11.585938 10.015625 -10.953125 C 9.867188 -10.328125 9.796875 -9.75 9.796875 -9.21875 C 9.796875 -8.25 9.929688 -7.472656 10.203125 -6.890625 C 10.472656 -6.316406 10.800781 -5.8125 11.1875 -5.375 C 12.300781 -4.257812 13.773438 -3.703125 15.609375 -3.703125 C 16.191406 -3.703125 16.75 -3.757812 17.28125 -3.875 C 17.8125 -4 18.367188 -4.21875 18.953125 -4.53125 C 19.535156 -4.851562 20.1875 -5.265625 20.90625 -5.765625 C 21.632812 -6.273438 22.507812 -6.894531 23.53125 -7.625 Z M 36.609375 -3.125 C 35.785156 -1.570312 34.890625 -0.539062 33.921875 -0.03125 C 32.953125 0.46875 31.882812 0.71875 30.71875 0.71875 C 28.6875 0.71875 27.085938 0.222656 25.921875 -0.765625 C 24.765625 -1.753906 24.015625 -3.070312 23.671875 -4.71875 C 22.703125 -3.75 21.804688 -2.898438 20.984375 -2.171875 C 20.160156 -1.453125 19.335938 -0.847656 18.515625 -0.359375 C 17.691406 0.117188 16.84375 0.476562 15.96875 0.71875 C 15.101562 0.96875 14.140625 1.09375 13.078125 1.09375 C 11.765625 1.09375 10.515625 0.894531 9.328125 0.5 C 8.140625 0.113281 7.097656 -0.460938 6.203125 -1.234375 C 5.304688 -2.003906 4.601562 -2.957031 4.09375 -4.09375 C 3.59375 -5.238281 3.34375 -6.5625 3.34375 -8.0625 C 3.34375 -9.082031 3.507812 -10.070312 3.84375 -11.03125 C 4.1875 -12 4.789062 -12.929688 5.65625 -13.828125 C 6.53125 -14.722656 7.753906 -15.617188 9.328125 -16.515625 C 10.898438 -17.410156 12.921875 -18.296875 15.390625 -19.171875 C 16.503906 -19.554688 17.773438 -19.953125 19.203125 -20.359375 C 20.640625 -20.773438 22.082031 -21.175781 23.53125 -21.5625 L 23.53125 -23.53125 C 23.53125 -25.269531 23.394531 -26.707031 23.125 -27.84375 C 22.863281 -28.988281 22.46875 -29.882812 21.9375 -30.53125 C 21.40625 -31.1875 20.710938 -31.644531 19.859375 -31.90625 C 19.015625 -32.175781 17.988281 -32.3125 16.78125 -32.3125 C 16.25 -32.3125 15.675781 -32.285156 15.0625 -32.234375 C 14.457031 -32.191406 13.796875 -32.097656 13.078125 -31.953125 L 11.625 -26.875 C 10.945312 -24.550781 9.640625 -23.390625 7.703125 -23.390625 C 6.679688 -23.390625 5.878906 -23.664062 5.296875 -24.21875 C 4.722656 -24.78125 4.382812 -25.546875 4.28125 -26.515625 C 4.957031 -29.265625 6.554688 -31.472656 9.078125 -33.140625 C 11.597656 -34.816406 14.722656 -35.65625 18.453125 -35.65625 C 22.273438 -35.65625 25.101562 -34.6875 26.9375 -32.75 C 28.78125 -30.8125 29.703125 -27.519531 29.703125 -22.875 L 29.703125 -7.328125 C 29.703125 -4.472656 30.5 -3.046875 32.09375 -3.046875 C 32.675781 -3.046875 33.1875 -3.175781 33.625 -3.4375 C 34.0625 -3.707031 34.445312 -3.988281 34.78125 -4.28125 L 35.15625 -4.71875 Z M 36.609375 -3.125 "/></g></g></g><g fill="#f1be32" fill-opacity="1"><g transform="translate(253.122589, 351.288358)"><g><path d="M 39.796875 -2.609375 L 39.796875 0 L 29.921875 0 L 18.734375 -18.015625 L 13.875 -13.078125 C 13.875 -11.523438 13.882812 -9.945312 13.90625 -8.34375 C 13.925781 -6.75 13.960938 -5.175781 14.015625 -3.625 L 19.75 -2.609375 L 19.75 0 L 1.890625 0 L 1.890625 -2.609375 L 7.625 -3.625 C 7.675781 -5.5625 7.710938 -7.507812 7.734375 -9.46875 C 7.753906 -11.4375 7.765625 -13.363281 7.765625 -15.25 L 7.765625 -46.40625 L 1.8125 -47.140625 L 1.8125 -49.671875 L 13.140625 -52.9375 L 14.15625 -52.359375 L 13.875 -42.046875 L 13.875 -17.28125 L 26.65625 -30.578125 L 21.359375 -31.375 L 21.359375 -34.359375 L 37.90625 -34.359375 L 37.90625 -31.375 L 30.9375 -30.4375 L 23.015625 -22.375 L 35 -3.484375 Z M 39.796875 -2.609375 "/></g></g></g><g fill="#f1be32" fill-opacity="1"><g transform="translate(292.91818, 351.288358)"><g><path d="M 23.3125 -20.703125 C 25.050781 -20.703125 26.210938 -21.0625 26.796875 -21.78125 C 27.378906 -22.507812 27.671875 -23.40625 27.671875 -24.46875 C 27.671875 -25.488281 27.460938 -26.46875 27.046875 -27.40625 C 26.640625 -28.351562 26.082031 -29.191406 25.375 -29.921875 C 24.675781 -30.648438 23.851562 -31.226562 22.90625 -31.65625 C 21.96875 -32.09375 20.941406 -32.3125 19.828125 -32.3125 C 18.804688 -32.3125 17.75 -32.101562 16.65625 -31.6875 C 15.570312 -31.28125 14.582031 -30.601562 13.6875 -29.65625 C 12.789062 -28.71875 12.015625 -27.507812 11.359375 -26.03125 C 10.710938 -24.5625 10.289062 -22.785156 10.09375 -20.703125 Z M 9.953125 -17.578125 C 10.046875 -13.078125 11.15625 -9.613281 13.28125 -7.1875 C 15.414062 -4.769531 18.226562 -3.5625 21.71875 -3.5625 C 24.039062 -3.5625 25.972656 -4.046875 27.515625 -5.015625 C 29.066406 -5.984375 30.5 -7.238281 31.8125 -8.78125 L 33.546875 -7.40625 C 32.296875 -4.789062 30.492188 -2.71875 28.140625 -1.1875 C 25.796875 0.332031 22.953125 1.09375 19.609375 1.09375 C 17.140625 1.09375 14.910156 0.679688 12.921875 -0.140625 C 10.941406 -0.960938 9.25 -2.160156 7.84375 -3.734375 C 6.4375 -5.304688 5.34375 -7.207031 4.5625 -9.4375 C 3.789062 -11.664062 3.40625 -14.160156 3.40625 -16.921875 C 3.40625 -19.679688 3.84375 -22.207031 4.71875 -24.5 C 5.59375 -26.800781 6.789062 -28.773438 8.3125 -30.421875 C 9.84375 -32.078125 11.625 -33.363281 13.65625 -34.28125 C 15.6875 -35.195312 17.835938 -35.65625 20.109375 -35.65625 C 22.003906 -35.65625 23.785156 -35.335938 25.453125 -34.703125 C 27.117188 -34.078125 28.554688 -33.160156 29.765625 -31.953125 C 30.984375 -30.742188 31.941406 -29.265625 32.640625 -27.515625 C 33.347656 -25.773438 33.703125 -23.816406 33.703125 -21.640625 C 33.703125 -20.816406 33.648438 -20.066406 33.546875 -19.390625 C 33.453125 -18.710938 33.332031 -18.109375 33.1875 -17.578125 Z M 9.953125 -17.578125 "/></g></g></g><g fill="#f1be32" fill-opacity="1"><g transform="translate(329.954233, 351.288358)"><g><path d="M 14.53125 -26.4375 C 15.78125 -29.34375 17.335938 -31.601562 19.203125 -33.21875 C 21.066406 -34.84375 22.992188 -35.65625 24.984375 -35.65625 C 26.046875 -35.65625 27.070312 -35.375 28.0625 -34.8125 C 29.0625 -34.257812 29.679688 -33.351562 29.921875 -32.09375 C 29.921875 -30.882812 29.507812 -29.925781 28.6875 -29.21875 C 27.863281 -28.519531 26.820312 -28.171875 25.5625 -28.171875 C 24.0625 -28.171875 22.679688 -28.78125 21.421875 -30 L 20.921875 -30.5 C 19.421875 -29.382812 18.160156 -28.0625 17.140625 -26.53125 C 16.117188 -25.007812 15.269531 -23.160156 14.59375 -20.984375 L 14.59375 -15.25 C 14.59375 -13.65625 14.601562 -11.789062 14.625 -9.65625 C 14.65625 -7.53125 14.695312 -5.546875 14.75 -3.703125 L 20.703125 -2.609375 L 20.703125 0 L 3.125 0 L 3.125 -2.609375 L 8.359375 -3.5625 C 8.398438 -5.394531 8.429688 -7.390625 8.453125 -9.546875 C 8.484375 -11.703125 8.5 -13.601562 8.5 -15.25 L 8.5 -18.953125 C 8.5 -20.941406 8.472656 -22.585938 8.421875 -23.890625 C 8.378906 -25.203125 8.332031 -26.582031 8.28125 -28.03125 L 2.546875 -28.6875 L 2.546875 -31.234375 L 12.640625 -35.65625 L 13.71875 -34.9375 Z M 14.53125 -26.4375 "/></g></g></g></svg>