<svg xmlns="http://www.w3.org/2000/svg" xmlns:xlink="http://www.w3.org/1999/xlink" width="500" zoomAndPan="magnify" viewBox="0 0 375 374.999991" height="500" preserveAspectRatio="xMidYMid meet" version="1.0"><defs><g/><clipPath id="1a06868c21"><path d="M 101 147 L 183 147 L 183 236.738281 L 101 236.738281 Z M 101 147 " clip-rule="nonzero"/></clipPath><clipPath id="e10e70ec38"><path d="M 100.964844 146 L 184 146 L 184 236.738281 L 100.964844 236.738281 Z M 100.964844 146 " clip-rule="nonzero"/></clipPath><clipPath id="fdec997ebc"><path d="M 182 147 L 263.714844 147 L 263.714844 236.738281 L 182 236.738281 Z M 182 147 " clip-rule="nonzero"/></clipPath><clipPath id="af316f959e"><path d="M 181 146 L 263.714844 146 L 263.714844 236.738281 L 181 236.738281 Z M 181 146 " clip-rule="nonzero"/></clipPath><clipPath id="c7491590db"><path d="M 108 140 L 183 140 L 183 236.738281 L 108 236.738281 Z M 108 140 " clip-rule="nonzero"/></clipPath><clipPath id="a321c4c1d4"><path d="M 108 139 L 184 139 L 184 236.738281 L 108 236.738281 Z M 108 139 " clip-rule="nonzero"/></clipPath><clipPath id="19db33e28d"><path d="M 182 140 L 256 140 L 256 236.738281 L 182 236.738281 Z M 182 140 " clip-rule="nonzero"/></clipPath><clipPath id="5960d2252e"><path d="M 181 139 L 257 139 L 257 236.738281 L 181 236.738281 Z M 181 139 " clip-rule="nonzero"/></clipPath><clipPath id="6a9be53149"><path d="M 116 134 L 183 134 L 183 236.738281 L 116 236.738281 Z M 116 134 " clip-rule="nonzero"/></clipPath><clipPath id="3badba5d88"><path d="M 115 133.238281 L 184 133.238281 L 184 236.738281 L 115 236.738281 Z M 115 133.238281 " clip-rule="nonzero"/></clipPath><clipPath id="9cd1b8207e"><path d="M 180 134 L 248 134 L 248 236.738281 L 180 236.738281 Z M 180 134 " clip-rule="nonzero"/></clipPath><clipPath id="0ef979586a"><path d="M 179 133.238281 L 248 133.238281 L 248 236.738281 L 179 236.738281 Z M 179 133.238281 " clip-rule="nonzero"/></clipPath><clipPath id="e71c3be1ba"><path d="M 165 95 L 226 95 L 226 231 L 165 231 Z M 165 95 " clip-rule="nonzero"/></clipPath><clipPath id="954dc9e6d6"><path d="M 137.449219 138.617188 L 225.535156 95.097656 L 271.378906 187.890625 L 183.292969 231.410156 Z M 137.449219 138.617188 " clip-rule="nonzero"/></clipPath><clipPath id="452d361b09"><path d="M 137.449219 138.617188 L 225.535156 95.097656 L 271.378906 187.890625 L 183.292969 231.410156 Z M 137.449219 138.617188 " clip-rule="nonzero"/></clipPath></defs><rect x="-37.5" width="450" fill="#ffffff" y="-37.499999" height="449.999989" fill-opacity="1"/><rect x="-37.5" width="450" fill="#ffffff" y="-37.499999" height="449.999989" fill-opacity="1"/><g clip-path="url(#1a06868c21)"><path fill="#ffffff" d="M 182.472656 236.160156 L 101.777344 235.15625 L 101.777344 147.28125 L 182.472656 147.28125 Z M 182.472656 236.160156 " fill-opacity="1" fill-rule="nonzero"/></g><g clip-path="url(#e10e70ec38)"><path fill="#f1be32" d="M 182.472656 236.972656 C 182.46875 236.972656 182.46875 236.972656 182.464844 236.972656 L 101.769531 235.96875 C 101.324219 235.964844 100.964844 235.601562 100.964844 235.15625 L 100.964844 147.28125 C 100.964844 146.832031 101.328125 146.464844 101.777344 146.464844 L 182.472656 146.464844 C 182.921875 146.464844 183.289062 146.832031 183.289062 147.28125 L 183.289062 236.160156 C 183.289062 236.378906 183.199219 236.585938 183.046875 236.738281 C 182.894531 236.890625 182.6875 236.972656 182.472656 236.972656 Z M 102.597656 234.347656 L 181.660156 235.332031 L 181.660156 148.097656 L 102.597656 148.097656 Z M 102.597656 234.347656 " fill-opacity="1" fill-rule="nonzero"/></g><g clip-path="url(#fdec997ebc)"><path fill="#ffffff" d="M 182.472656 236.160156 L 263.167969 235.15625 L 263.167969 147.28125 L 182.472656 147.28125 Z M 182.472656 236.160156 " fill-opacity="1" fill-rule="nonzero"/></g><g clip-path="url(#af316f959e)"><path fill="#f1be32" d="M 182.472656 236.972656 C 182.257812 236.972656 182.054688 236.890625 181.898438 236.738281 C 181.746094 236.585938 181.660156 236.378906 181.660156 236.160156 L 181.660156 147.28125 C 181.660156 146.832031 182.023438 146.464844 182.472656 146.464844 L 263.167969 146.464844 C 263.617188 146.464844 263.984375 146.832031 263.984375 147.28125 L 263.984375 235.15625 C 263.984375 235.601562 263.625 235.964844 263.179688 235.96875 L 182.488281 236.972656 C 182.480469 236.972656 182.476562 236.972656 182.472656 236.972656 Z M 183.292969 148.097656 L 183.292969 235.332031 L 262.351562 234.347656 L 262.351562 148.097656 Z M 183.292969 148.097656 " fill-opacity="1" fill-rule="nonzero"/></g><g clip-path="url(#c7491590db)"><path fill="#ffffff" d="M 182.472656 236.160156 C 182.472656 236.160156 162.824219 229.683594 145.734375 229.683594 C 128.648438 229.683594 108.996094 229.683594 108.996094 229.683594 L 108.996094 140.699219 C 108.996094 140.699219 119.574219 140.699219 143.148438 140.699219 C 166.726562 140.699219 182.472656 147.171875 182.472656 147.171875 Z M 182.472656 236.160156 " fill-opacity="1" fill-rule="nonzero"/></g><g clip-path="url(#a321c4c1d4)"><path fill="#f1be32" d="M 182.472656 236.972656 C 182.390625 236.972656 182.300781 236.960938 182.21875 236.933594 C 182.023438 236.867188 162.492188 230.5 145.734375 230.5 L 108.992188 230.5 C 108.542969 230.5 108.179688 230.132812 108.179688 229.683594 L 108.179688 140.699219 C 108.179688 140.25 108.542969 139.882812 108.992188 139.882812 L 143.148438 139.882812 C 166.613281 139.882812 182.625 146.355469 182.785156 146.421875 C 183.089844 146.546875 183.289062 146.84375 183.289062 147.175781 L 183.289062 236.160156 C 183.289062 236.421875 183.160156 236.667969 182.949219 236.820312 C 182.8125 236.921875 182.644531 236.972656 182.472656 236.972656 Z M 109.808594 228.867188 L 145.730469 228.867188 C 160.480469 228.867188 177.300781 233.710938 181.65625 235.042969 L 181.65625 147.734375 C 178.78125 146.65625 163.953125 141.515625 143.148438 141.515625 L 109.808594 141.515625 Z M 109.808594 228.867188 " fill-opacity="1" fill-rule="nonzero"/></g><g clip-path="url(#19db33e28d)"><path fill="#ffffff" d="M 182.472656 236.160156 C 182.472656 236.160156 202.125 229.683594 219.210938 229.683594 C 236.300781 229.683594 255.949219 229.683594 255.949219 229.683594 L 255.949219 140.699219 C 255.949219 140.699219 245.371094 140.699219 221.796875 140.699219 C 198.222656 140.699219 182.472656 147.171875 182.472656 147.171875 Z M 182.472656 236.160156 " fill-opacity="1" fill-rule="nonzero"/></g><g clip-path="url(#5960d2252e)"><path fill="#f1be32" d="M 182.472656 236.972656 C 182.304688 236.972656 182.136719 236.921875 181.996094 236.816406 C 181.78125 236.664062 181.65625 236.417969 181.65625 236.15625 L 181.65625 147.171875 C 181.65625 146.84375 181.855469 146.542969 182.160156 146.417969 C 182.320312 146.351562 198.328125 139.878906 221.796875 139.878906 L 255.949219 139.878906 C 256.398438 139.878906 256.765625 140.246094 256.765625 140.695312 L 256.765625 229.675781 C 256.765625 230.128906 256.398438 230.492188 255.949219 230.492188 L 219.210938 230.492188 C 202.449219 230.492188 182.921875 236.863281 182.726562 236.925781 C 182.644531 236.960938 182.5625 236.972656 182.472656 236.972656 Z M 183.292969 147.734375 L 183.292969 235.046875 C 187.644531 233.714844 204.464844 228.867188 219.214844 228.867188 L 255.136719 228.867188 L 255.136719 141.515625 L 221.800781 141.515625 C 200.988281 141.515625 186.160156 146.65625 183.292969 147.734375 Z M 183.292969 147.734375 " fill-opacity="1" fill-rule="nonzero"/></g><g clip-path="url(#6a9be53149)"><path fill="#ffffff" d="M 182.472656 236.160156 C 182.472656 236.160156 169.875 223.050781 152.789062 223.050781 C 135.699219 223.050781 116.050781 223.050781 116.050781 223.050781 L 116.050781 134.0625 C 116.050781 134.0625 126.625 134.0625 150.203125 134.0625 C 173.777344 134.0625 182.472656 147.171875 182.472656 147.171875 Z M 182.472656 236.160156 " fill-opacity="1" fill-rule="nonzero"/></g><g clip-path="url(#3badba5d88)"><path fill="#f1be32" d="M 182.472656 236.972656 C 182.253906 236.972656 182.042969 236.886719 181.886719 236.722656 C 181.761719 236.597656 169.316406 223.863281 152.789062 223.863281 L 116.050781 223.863281 C 115.601562 223.863281 115.234375 223.5 115.234375 223.050781 L 115.234375 134.0625 C 115.234375 133.613281 115.601562 133.25 116.050781 133.25 L 150.203125 133.25 C 173.945312 133.25 182.789062 146.171875 183.152344 146.722656 C 183.238281 146.855469 183.289062 147.011719 183.289062 147.171875 L 183.289062 236.15625 C 183.289062 236.488281 183.085938 236.789062 182.777344 236.914062 C 182.679688 236.953125 182.578125 236.972656 182.472656 236.972656 Z M 116.863281 222.230469 L 152.789062 222.230469 C 166.925781 222.230469 177.882812 230.847656 181.65625 234.25 L 181.65625 147.4375 C 180.46875 145.851562 171.46875 134.882812 150.203125 134.882812 L 116.863281 134.882812 Z M 116.863281 222.230469 " fill-opacity="1" fill-rule="nonzero"/></g><g clip-path="url(#9cd1b8207e)"><path fill="#ffffff" d="M 180.679688 236.160156 C 180.679688 236.160156 193.277344 223.050781 210.367188 223.050781 C 227.453125 223.050781 247.105469 223.050781 247.105469 223.050781 L 247.105469 134.0625 C 247.105469 134.0625 236.527344 134.0625 212.953125 134.0625 C 189.375 134.0625 180.679688 147.171875 180.679688 147.171875 Z M 180.679688 236.160156 " fill-opacity="1" fill-rule="nonzero"/></g><g clip-path="url(#0ef979586a)"><path fill="#f1be32" d="M 180.679688 236.972656 C 180.574219 236.972656 180.476562 236.953125 180.378906 236.914062 C 180.066406 236.792969 179.867188 236.492188 179.867188 236.160156 L 179.867188 147.171875 C 179.867188 147.011719 179.910156 146.855469 180.003906 146.722656 C 180.363281 146.171875 189.210938 133.25 212.953125 133.25 L 247.105469 133.25 C 247.554688 133.25 247.917969 133.613281 247.917969 134.0625 L 247.917969 223.046875 C 247.917969 223.496094 247.554688 223.859375 247.105469 223.859375 L 210.363281 223.859375 C 193.8125 223.859375 181.390625 236.59375 181.265625 236.71875 C 181.109375 236.886719 180.898438 236.972656 180.679688 236.972656 Z M 181.496094 147.4375 L 181.496094 234.25 C 185.269531 230.847656 196.226562 222.230469 210.363281 222.230469 L 246.285156 222.230469 L 246.285156 134.882812 L 212.953125 134.882812 C 191.679688 134.882812 182.683594 145.851562 181.496094 147.4375 Z M 181.496094 147.4375 " fill-opacity="1" fill-rule="nonzero"/></g><g clip-path="url(#e71c3be1ba)"><g clip-path="url(#954dc9e6d6)"><g clip-path="url(#452d361b09)"><path fill="#ffffff" d="M 225.535156 95.785156 C 225.535156 95.785156 225.542969 95.804688 225.542969 95.804688 C 225.554688 95.828125 225.566406 95.847656 225.574219 95.867188 C 225.585938 95.886719 225.585938 95.886719 225.59375 95.90625 C 225.605469 95.929688 225.613281 95.949219 225.613281 95.949219 C 225.625 95.96875 225.625 95.96875 225.613281 96 C 225.625 96.019531 225.636719 96.039062 225.613281 96.050781 C 225.625 96.070312 225.605469 96.082031 225.613281 96.101562 L 225.613281 96.203125 C 225.605469 96.234375 225.605469 96.234375 225.59375 96.265625 L 225.574219 96.328125 L 225.5625 96.355469 C 225.53125 96.398438 225.222656 96.957031 224.675781 97.914062 C 223.753906 100.636719 223.976562 105.515625 224.210938 110.265625 C 224.441406 115.265625 224.703125 120.433594 223.65625 123.625 C 222.339844 127.710938 220.757812 130.175781 219.699219 131.484375 C 222.183594 130.945312 223.773438 131.027344 223.90625 131.035156 C 224.222656 131.058594 224.457031 131.324219 224.433594 131.640625 C 224.425781 131.824219 224.3125 132.007812 224.15625 132.109375 C 224.074219 132.148438 216.089844 136.757812 212.449219 147.109375 C 211.289062 150.382812 210.472656 154.453125 209.691406 158.378906 C 208.425781 164.679688 207.109375 171.1875 204.363281 175.265625 C 201.792969 179.082031 198.398438 182.261719 195.960938 184.28125 C 197.265625 183.941406 198.625 183.753906 199.984375 183.71875 C 200.289062 183.722656 200.566406 183.96875 200.5625 184.273438 C 200.550781 184.457031 200.480469 184.621094 200.335938 184.742188 C 197.152344 187.105469 196.707031 190.585938 196.238281 194.277344 C 195.847656 197.347656 195.433594 200.53125 193.519531 203.410156 C 190.136719 208.519531 184.351562 212.523438 183.304688 213.242188 C 183.304688 213.703125 183.324219 214.152344 183.332031 214.582031 C 183.582031 224.3125 185.3125 229.414062 185.34375 229.472656 C 185.441406 229.730469 185.328125 230.015625 185.09375 230.15625 L 185.011719 230.199219 C 184.765625 230.320312 184.480469 230.257812 184.296875 230.042969 C 184.1875 229.917969 181.722656 226.832031 180.285156 219.242188 C 180.019531 217.769531 179.75 216.042969 179.597656 214.082031 C 178.539062 213.488281 173.976562 210.75 172.648438 206.824219 C 171.402344 203.113281 169.574219 202.867188 169.574219 202.867188 C 169.289062 202.855469 169.066406 202.609375 169.046875 202.316406 C 169.027344 202.019531 169.261719 201.773438 169.539062 201.714844 C 170.316406 201.636719 171.121094 201.671875 171.886719 201.828125 C 170.527344 200.257812 168.679688 197.964844 167.605469 196.101562 C 164.417969 190.523438 165.457031 186.800781 168.921875 176.863281 C 171.003906 170.976562 167.960938 164.710938 167.929688 164.652344 C 167.789062 164.363281 167.902344 164.027344 168.1875 163.886719 C 168.332031 163.816406 168.503906 163.808594 168.65625 163.859375 C 169.796875 164.3125 170.855469 164.960938 171.773438 165.78125 C 171.417969 164.914062 171.15625 164.023438 171.007812 163.105469 C 170.375 159.242188 171.660156 155.195312 174.8125 151.066406 C 185.226562 137.46875 185.882812 132.765625 185.894531 132.734375 C 185.914062 132.519531 186.070312 132.316406 186.292969 132.257812 C 186.507812 132.175781 186.722656 132.25 186.886719 132.421875 C 186.996094 132.546875 187.878906 133.613281 188.019531 136.574219 C 188.5625 133.757812 189.929688 130.179688 192.613281 125.722656 C 201.636719 110.851562 224.371094 95.851562 224.707031 95.609375 L 224.730469 95.597656 C 224.75 95.585938 224.789062 95.566406 224.8125 95.558594 L 224.851562 95.535156 L 224.890625 95.515625 C 224.914062 95.507812 224.945312 95.515625 224.945312 95.515625 L 225.046875 95.515625 L 225.097656 95.519531 L 225.15625 95.539062 L 225.1875 95.546875 C 225.21875 95.558594 225.230469 95.578125 225.25 95.570312 L 225.28125 95.578125 C 225.28125 95.578125 225.320312 95.609375 225.320312 95.609375 L 225.363281 95.640625 C 225.371094 95.660156 225.371094 95.660156 225.382812 95.683594 C 225.390625 95.703125 225.402344 95.722656 225.433594 95.734375 C 225.453125 95.722656 225.453125 95.722656 225.464844 95.742188 C 225.542969 95.753906 225.535156 95.785156 225.535156 95.785156 Z M 225.535156 95.785156 " fill-opacity="1" fill-rule="nonzero"/><path fill="#ffffff" d="M 225.535156 95.785156 C 225.523438 95.765625 225.515625 95.746094 225.484375 95.734375 C 225.453125 95.722656 225.472656 95.714844 225.464844 95.691406 L 225.421875 95.664062 C 225.414062 95.640625 225.382812 95.632812 225.382812 95.632812 L 225.351562 95.621094 C 225.320312 95.609375 225.3125 95.589844 225.289062 95.601562 L 225.257812 95.589844 L 225.199219 95.570312 L 225.046875 95.570312 C 225.023438 95.578125 224.996094 95.566406 224.996094 95.566406 L 224.953125 95.589844 L 224.914062 95.609375 C 224.890625 95.617188 224.851562 95.640625 224.832031 95.648438 L 224.808594 95.660156 C 224.460938 95.882812 201.71875 110.914062 192.695312 125.785156 C 190 130.222656 188.636719 133.796875 188.101562 136.632812 C 187.953125 133.652344 187.078125 132.605469 186.96875 132.484375 C 186.816406 132.332031 186.601562 132.257812 186.375 132.316406 C 186.152344 132.378906 185.988281 132.5625 185.945312 132.785156 C 185.945312 132.835938 185.277344 137.519531 174.863281 151.117188 C 171.648438 155.226562 170.363281 159.273438 171 163.136719 C 171.148438 164.054688 171.410156 164.945312 171.761719 165.8125 C 170.847656 164.992188 169.808594 164.332031 168.648438 163.890625 C 168.363281 163.777344 168.023438 163.917969 167.910156 164.203125 C 167.859375 164.355469 167.867188 164.527344 167.9375 164.671875 C 167.96875 164.734375 170.992188 171.003906 168.941406 176.90625 C 165.476562 186.84375 164.4375 190.5625 167.625 196.140625 C 168.699219 198.003906 170.546875 200.300781 171.90625 201.867188 C 171.140625 201.710938 170.335938 201.675781 169.558594 201.753906 C 169.273438 201.796875 169.046875 202.058594 169.066406 202.355469 C 169.085938 202.652344 169.300781 202.878906 169.59375 202.910156 C 169.617188 202.898438 171.421875 203.152344 172.667969 206.863281 C 174 210.789062 178.539062 213.539062 179.617188 214.125 C 179.800781 216.097656 180.039062 217.8125 180.308594 219.28125 C 181.722656 226.832031 184.21875 229.929688 184.308594 230.0625 C 184.480469 230.257812 184.765625 230.320312 184.992188 230.207031 L 185.03125 230.1875 C 185.269531 230.046875 185.382812 229.761719 185.28125 229.503906 C 185.261719 229.464844 183.519531 224.339844 183.269531 214.613281 C 183.261719 214.183594 183.242188 213.734375 183.246094 213.273438 C 184.320312 212.566406 190.085938 208.570312 193.460938 203.441406 C 195.371094 200.5625 195.785156 197.378906 196.175781 194.308594 C 196.644531 190.613281 197.097656 187.105469 200.273438 184.773438 C 200.542969 184.589844 200.59375 184.234375 200.390625 183.976562 C 200.289062 183.824219 200.117188 183.730469 199.921875 183.75 C 198.566406 183.785156 197.214844 183.992188 195.898438 184.3125 C 198.335938 182.292969 201.730469 179.113281 204.300781 175.296875 C 207.046875 171.21875 208.363281 164.710938 209.628906 158.410156 C 210.433594 154.472656 211.25 150.402344 212.386719 147.140625 C 216.03125 136.789062 224.023438 132.199219 224.105469 132.160156 C 224.382812 132 224.464844 131.652344 224.335938 131.386719 C 224.253906 131.222656 224.070312 131.109375 223.867188 131.109375 C 223.734375 131.097656 222.171875 131.027344 219.65625 131.558594 C 220.714844 130.246094 222.300781 127.78125 223.617188 123.695312 C 224.660156 120.503906 224.398438 115.339844 224.167969 110.335938 C 223.9375 105.585938 223.703125 100.6875 224.636719 97.984375 C 225.171875 97.007812 225.488281 96.46875 225.519531 96.429688 L 225.53125 96.398438 L 225.550781 96.335938 C 225.5625 96.304688 225.5625 96.304688 225.574219 96.277344 L 225.574219 96.171875 C 225.5625 96.152344 225.582031 96.144531 225.574219 96.121094 C 225.5625 96.101562 225.582031 96.089844 225.574219 96.070312 C 225.5625 96.050781 225.585938 96.039062 225.574219 96.019531 C 225.5625 96 225.554688 95.980469 225.554688 95.980469 C 225.542969 95.957031 225.542969 95.957031 225.535156 95.9375 C 225.523438 95.917969 225.511719 95.898438 225.503906 95.878906 C 225.535156 95.835938 225.542969 95.804688 225.535156 95.785156 Z M 223.054688 110.351562 C 223.308594 115.242188 223.550781 120.316406 222.574219 123.292969 C 220.546875 129.640625 217.839844 131.84375 217.796875 131.863281 C 217.726562 131.925781 217.675781 131.976562 217.632812 132.046875 C 215.578125 132.679688 213.605469 133.582031 211.730469 134.683594 C 211.457031 134.847656 211.371094 135.191406 211.535156 135.46875 C 211.695312 135.746094 212.042969 135.828125 212.320312 135.667969 C 216.269531 133.359375 219.726562 132.566406 221.808594 132.300781 C 216.984375 135.984375 213.34375 140.992188 211.335938 146.71875 C 210.15625 150.050781 209.34375 154.171875 208.527344 158.136719 C 207.28125 164.328125 205.988281 170.722656 203.375 174.609375 C 199.089844 180.980469 192.214844 185.671875 192.164062 185.722656 L 192.125 185.796875 C 191.511719 186.148438 190.9375 186.535156 190.402344 187 C 190.179688 187.214844 190.15625 187.582031 190.367188 187.808594 C 190.582031 188.035156 190.898438 188.054688 191.132812 187.863281 C 193.347656 185.953125 196.425781 185.273438 198.285156 185.019531 C 195.914062 187.539062 195.488281 190.753906 195.054688 194.148438 C 194.671875 197.085938 194.292969 200.128906 192.511719 202.8125 C 189.714844 207.046875 185.066406 210.566406 183.242188 211.875 C 183.285156 202.738281 184.65625 188.875 190.277344 170.921875 C 197.519531 147.816406 216.089844 113.359375 222.945312 101.007812 C 222.742188 103.683594 222.910156 106.960938 223.054688 110.351562 Z M 206.828125 125.015625 C 198.238281 140.40625 187.109375 162.710938 182.753906 181.414062 C 179.523438 195.230469 179.015625 205.484375 179.492188 212.683594 C 177.945312 211.71875 174.738281 209.40625 173.742188 206.460938 C 173.179688 204.804688 172.492188 203.71875 171.839844 203.023438 C 172.871094 203.25 173.835938 203.816406 174.539062 204.617188 C 174.730469 204.851562 175.097656 204.875 175.332031 204.683594 C 175.570312 204.488281 175.589844 204.121094 175.398438 203.886719 C 175.105469 203.546875 174.769531 203.230469 174.414062 202.972656 C 174.371094 202.941406 170.339844 198.59375 168.628906 195.597656 C 165.695312 190.425781 166.617188 187.09375 170.03125 177.308594 C 171.667969 172.632812 170.40625 167.910156 169.578125 165.617188 C 170.933594 166.402344 171.613281 167.261719 172.382812 168.203125 C 173.265625 169.320312 174.269531 170.582031 176.480469 171.757812 L 176.550781 171.796875 C 176.59375 171.828125 176.652344 171.847656 176.714844 171.871094 C 177.089844 172.066406 177.488281 172.25 177.9375 172.4375 C 178.222656 172.550781 178.570312 172.429688 178.683594 172.144531 C 178.796875 171.859375 178.675781 171.511719 178.390625 171.398438 C 177.914062 171.203125 177.503906 170.996094 177.117188 170.777344 C 176.488281 170.328125 172.917969 167.535156 172.171875 162.9375 C 171.597656 159.402344 172.800781 155.652344 175.757812 151.796875 C 183.164062 142.101562 185.742188 136.859375 186.609375 134.492188 C 186.832031 135.300781 187 136.515625 186.917969 138.3125 C 186.78125 141.128906 188.089844 143.414062 189.105469 144.742188 C 189.429688 145.246094 189.832031 145.707031 190.300781 146.085938 C 190.566406 146.261719 190.914062 146.191406 191.097656 145.949219 C 191.261719 145.714844 191.234375 145.398438 191.011719 145.203125 C 190.664062 144.863281 190.328125 144.496094 190.027344 144.085938 C 189.488281 143.203125 189.144531 142.253906 188.996094 141.230469 C 188.582031 138.585938 189.042969 133.851562 193.601562 126.328125 C 200.804688 114.523438 216.898438 102.523438 222.980469 98.242188 C 220.082031 102.628906 213.703125 112.652344 206.828125 125.015625 Z M 206.828125 125.015625 " fill-opacity="1" fill-rule="nonzero"/><path fill="#f1be32" d="M 225.535156 95.785156 C 225.523438 95.765625 225.515625 95.746094 225.484375 95.734375 C 225.453125 95.722656 225.472656 95.714844 225.464844 95.691406 L 225.421875 95.664062 C 225.414062 95.640625 225.382812 95.632812 225.382812 95.632812 L 225.351562 95.621094 C 225.320312 95.609375 225.3125 95.589844 225.289062 95.601562 L 225.257812 95.589844 L 225.199219 95.570312 L 225.046875 95.570312 C 225.023438 95.578125 224.996094 95.566406 224.996094 95.566406 L 224.953125 95.589844 L 224.914062 95.609375 C 224.890625 95.617188 224.851562 95.640625 224.832031 95.648438 L 224.808594 95.660156 C 224.460938 95.882812 201.71875 110.914062 192.695312 125.785156 C 190 130.222656 188.636719 133.796875 188.101562 136.632812 C 187.953125 133.652344 187.078125 132.605469 186.96875 132.484375 C 186.816406 132.332031 186.601562 132.257812 186.375 132.316406 C 186.152344 132.378906 185.988281 132.5625 185.945312 132.785156 C 185.945312 132.835938 185.277344 137.519531 174.863281 151.117188 C 171.648438 155.226562 170.363281 159.273438 171 163.136719 C 171.148438 164.054688 171.410156 164.945312 171.761719 165.8125 C 170.847656 164.992188 169.808594 164.332031 168.648438 163.890625 C 168.363281 163.777344 168.023438 163.917969 167.910156 164.203125 C 167.859375 164.355469 167.867188 164.527344 167.9375 164.671875 C 167.96875 164.734375 170.992188 171.003906 168.941406 176.90625 C 165.476562 186.84375 164.4375 190.5625 167.625 196.140625 C 168.699219 198.003906 170.546875 200.300781 171.90625 201.867188 C 171.140625 201.710938 170.335938 201.675781 169.558594 201.753906 C 169.273438 201.796875 169.046875 202.058594 169.066406 202.355469 C 169.085938 202.652344 169.300781 202.878906 169.59375 202.910156 C 169.617188 202.898438 171.421875 203.152344 172.667969 206.863281 C 174 210.789062 178.539062 213.539062 179.617188 214.125 C 179.800781 216.097656 180.039062 217.8125 180.308594 219.28125 C 181.722656 226.832031 184.21875 229.929688 184.308594 230.0625 C 184.480469 230.257812 184.765625 230.320312 184.992188 230.207031 L 185.03125 230.1875 C 185.269531 230.046875 185.382812 229.761719 185.28125 229.503906 C 185.261719 229.464844 183.519531 224.339844 183.269531 214.613281 C 183.261719 214.183594 183.242188 213.734375 183.246094 213.273438 C 184.320312 212.566406 190.085938 208.570312 193.460938 203.441406 C 195.371094 200.5625 195.785156 197.378906 196.175781 194.308594 C 196.644531 190.613281 197.097656 187.105469 200.273438 184.773438 C 200.542969 184.589844 200.59375 184.234375 200.390625 183.976562 C 200.289062 183.824219 200.117188 183.730469 199.921875 183.75 C 198.566406 183.785156 197.214844 183.992188 195.898438 184.3125 C 198.335938 182.292969 201.730469 179.113281 204.300781 175.296875 C 207.046875 171.21875 208.363281 164.710938 209.628906 158.410156 C 210.433594 154.472656 211.25 150.402344 212.386719 147.140625 C 216.03125 136.789062 224.023438 132.199219 224.105469 132.160156 C 224.382812 132 224.464844 131.652344 224.335938 131.386719 C 224.253906 131.222656 224.070312 131.109375 223.867188 131.109375 C 223.734375 131.097656 222.171875 131.027344 219.65625 131.558594 C 220.714844 130.246094 222.300781 127.78125 223.617188 123.695312 C 224.660156 120.503906 224.398438 115.339844 224.167969 110.335938 C 223.9375 105.585938 223.703125 100.6875 224.636719 97.984375 C 225.171875 97.007812 225.488281 96.46875 225.519531 96.429688 L 225.53125 96.398438 L 225.550781 96.335938 C 225.5625 96.304688 225.5625 96.304688 225.574219 96.277344 L 225.574219 96.171875 C 225.5625 96.152344 225.582031 96.144531 225.574219 96.121094 C 225.5625 96.101562 225.582031 96.089844 225.574219 96.070312 C 225.5625 96.050781 225.585938 96.039062 225.574219 96.019531 C 225.5625 96 225.554688 95.980469 225.554688 95.980469 C 225.542969 95.957031 225.542969 95.957031 225.535156 95.9375 C 225.523438 95.917969 225.511719 95.898438 225.503906 95.878906 C 225.535156 95.835938 225.542969 95.804688 225.535156 95.785156 Z M 182.144531 214.707031 C 182.222656 218.261719 182.5625 221.785156 183.136719 225.269531 C 182.371094 223.203125 181.800781 221.066406 181.402344 218.921875 C 180.136719 212.136719 179.550781 200.128906 183.855469 181.683594 C 188.199219 163.113281 199.289062 140.933594 207.824219 125.589844 C 210.554688 120.703125 213.1875 116.195312 215.5625 112.246094 C 207.054688 128.261719 194.773438 152.765625 189.195312 170.589844 C 182.945312 190.609375 181.914062 205.632812 182.144531 214.707031 Z M 223.054688 110.351562 C 223.289062 115.25 223.550781 120.316406 222.554688 123.300781 C 220.523438 129.652344 217.820312 131.855469 217.777344 131.875 C 217.707031 131.9375 217.65625 131.988281 217.613281 132.058594 C 215.558594 132.691406 213.585938 133.589844 211.710938 134.695312 C 211.433594 134.855469 211.351562 135.203125 211.511719 135.480469 C 211.675781 135.753906 212.023438 135.839844 212.296875 135.675781 C 216.25 133.367188 219.703125 132.578125 221.789062 132.3125 C 216.960938 135.996094 213.324219 141 211.316406 146.726562 C 210.136719 150.058594 209.320312 154.179688 208.507812 158.148438 C 207.261719 164.339844 205.964844 170.734375 203.355469 174.621094 C 199.066406 180.988281 192.195312 185.683594 192.144531 185.734375 L 192.125 185.796875 C 191.511719 186.148438 190.9375 186.535156 190.402344 187 C 190.179688 187.214844 190.15625 187.582031 190.367188 187.808594 C 190.582031 188.035156 190.898438 188.054688 191.132812 187.863281 C 193.347656 185.953125 196.425781 185.273438 198.285156 185.019531 C 195.914062 187.539062 195.488281 190.753906 195.054688 194.148438 C 194.671875 197.085938 194.292969 200.128906 192.511719 202.8125 C 189.714844 207.046875 185.066406 210.566406 183.242188 211.875 C 183.285156 202.738281 184.65625 188.875 190.277344 170.921875 C 197.519531 147.816406 216.089844 113.359375 222.945312 101.007812 C 222.742188 103.683594 222.910156 106.960938 223.054688 110.351562 Z M 206.847656 125.003906 C 198.261719 140.398438 187.128906 162.699219 182.753906 181.414062 C 179.523438 195.230469 179.015625 205.484375 179.492188 212.683594 C 177.945312 211.71875 174.738281 209.40625 173.742188 206.460938 C 173.179688 204.804688 172.492188 203.71875 171.839844 203.023438 C 172.871094 203.25 173.835938 203.816406 174.539062 204.617188 C 174.730469 204.851562 175.097656 204.875 175.332031 204.683594 C 175.570312 204.488281 175.589844 204.121094 175.398438 203.886719 C 175.105469 203.546875 174.769531 203.230469 174.414062 202.972656 C 174.371094 202.941406 170.339844 198.59375 168.628906 195.597656 C 165.695312 190.425781 166.617188 187.09375 170.03125 177.308594 C 171.667969 172.632812 170.40625 167.910156 169.578125 165.617188 C 170.933594 166.402344 171.613281 167.261719 172.382812 168.203125 C 173.265625 169.320312 174.269531 170.582031 176.480469 171.757812 L 176.550781 171.796875 C 176.59375 171.828125 176.652344 171.847656 176.714844 171.871094 C 177.089844 172.066406 177.488281 172.25 177.9375 172.4375 C 178.222656 172.550781 178.570312 172.429688 178.683594 172.144531 C 178.796875 171.859375 178.675781 171.511719 178.390625 171.398438 C 177.914062 171.203125 177.503906 170.996094 177.117188 170.777344 C 176.488281 170.328125 172.917969 167.535156 172.171875 162.9375 C 171.597656 159.402344 172.800781 155.652344 175.757812 151.796875 C 183.164062 142.101562 185.742188 136.859375 186.609375 134.492188 C 186.832031 135.300781 187 136.515625 186.917969 138.3125 C 186.78125 141.128906 188.089844 143.414062 189.105469 144.742188 C 189.429688 145.246094 189.832031 145.707031 190.300781 146.085938 C 190.566406 146.261719 190.914062 146.191406 191.097656 145.949219 C 191.261719 145.714844 191.234375 145.398438 191.011719 145.203125 C 190.664062 144.863281 190.328125 144.496094 190.023438 144.085938 C 189.488281 143.203125 189.144531 142.253906 188.996094 141.230469 C 188.582031 138.585938 189.042969 133.851562 193.601562 126.328125 C 200.804688 114.523438 216.898438 102.523438 222.980469 98.242188 C 220.082031 102.628906 213.703125 112.652344 206.847656 125.003906 Z M 206.847656 125.003906 " fill-opacity="1" fill-rule="nonzero"/></g></g></g><g fill="#f1be32" fill-opacity="1"><g transform="translate(101.821724, 268.511504)"><g><path d="M 12.640625 -22.203125 C 12.597656 -20.671875 12.578125 -19.128906 12.578125 -17.578125 C 12.578125 -16.035156 12.578125 -14.472656 12.578125 -12.890625 L 12.578125 -11.140625 C 12.578125 -9.578125 12.578125 -8.03125 12.578125 -6.5 C 12.578125 -4.96875 12.597656 -3.425781 12.640625 -1.875 L 16.3125 -1.46875 L 16.3125 0 L 5.421875 0 L 5.421875 -1.46875 L 9.09375 -1.875 C 9.132812 -3.375 9.15625 -4.894531 9.15625 -6.4375 C 9.15625 -7.988281 9.15625 -9.554688 9.15625 -11.140625 L 9.15625 -12.890625 C 9.15625 -14.453125 9.15625 -16.003906 9.15625 -17.546875 C 9.15625 -19.085938 9.132812 -20.640625 9.09375 -22.203125 L 3.59375 -22.203125 L 2.796875 -17.609375 L 0.71875 -17.609375 L 1 -24.03125 L 20.765625 -24.03125 L 21.015625 -17.609375 L 18.96875 -17.609375 L 18.140625 -22.203125 Z M 12.640625 -22.203125 "/></g></g></g><g fill="#f1be32" fill-opacity="1"><g transform="translate(123.552405, 268.511504)"><g><path d="M 11.53125 -10.234375 C 12.394531 -10.234375 12.96875 -10.410156 13.25 -10.765625 C 13.539062 -11.128906 13.6875 -11.578125 13.6875 -12.109375 C 13.6875 -12.609375 13.582031 -13.09375 13.375 -13.5625 C 13.175781 -14.03125 12.898438 -14.441406 12.546875 -14.796875 C 12.203125 -15.160156 11.796875 -15.445312 11.328125 -15.65625 C 10.867188 -15.875 10.363281 -15.984375 9.8125 -15.984375 C 9.300781 -15.984375 8.773438 -15.878906 8.234375 -15.671875 C 7.703125 -15.472656 7.210938 -15.140625 6.765625 -14.671875 C 6.328125 -14.203125 5.945312 -13.601562 5.625 -12.875 C 5.300781 -12.144531 5.09375 -11.265625 5 -10.234375 Z M 4.921875 -8.6875 C 4.972656 -6.46875 5.523438 -4.757812 6.578125 -3.5625 C 7.628906 -2.363281 9.015625 -1.765625 10.734375 -1.765625 C 11.890625 -1.765625 12.847656 -2.003906 13.609375 -2.484375 C 14.378906 -2.960938 15.085938 -3.582031 15.734375 -4.34375 L 16.59375 -3.65625 C 15.96875 -2.363281 15.070312 -1.34375 13.90625 -0.59375 C 12.75 0.15625 11.347656 0.53125 9.703125 0.53125 C 8.472656 0.53125 7.367188 0.328125 6.390625 -0.078125 C 5.410156 -0.484375 4.570312 -1.070312 3.875 -1.84375 C 3.1875 -2.625 2.648438 -3.566406 2.265625 -4.671875 C 1.878906 -5.773438 1.6875 -7.007812 1.6875 -8.375 C 1.6875 -9.738281 1.898438 -10.988281 2.328125 -12.125 C 2.765625 -13.257812 3.359375 -14.234375 4.109375 -15.046875 C 4.867188 -15.859375 5.75 -16.492188 6.75 -16.953125 C 7.757812 -17.410156 8.828125 -17.640625 9.953125 -17.640625 C 10.878906 -17.640625 11.753906 -17.484375 12.578125 -17.171875 C 13.410156 -16.859375 14.125 -16.398438 14.71875 -15.796875 C 15.320312 -15.203125 15.796875 -14.472656 16.140625 -13.609375 C 16.492188 -12.753906 16.671875 -11.785156 16.671875 -10.703125 C 16.671875 -10.296875 16.644531 -9.925781 16.59375 -9.59375 C 16.550781 -9.257812 16.492188 -8.957031 16.421875 -8.6875 Z M 4.921875 -8.6875 "/></g></g></g><g fill="#f1be32" fill-opacity="1"><g transform="translate(141.870839, 268.511504)"><g><path d="M 9.265625 -9.953125 C 11.085938 -9.273438 12.363281 -8.5 13.09375 -7.625 C 13.820312 -6.757812 14.1875 -5.765625 14.1875 -4.640625 C 14.1875 -3.960938 14.039062 -3.3125 13.75 -2.6875 C 13.46875 -2.070312 13.03125 -1.523438 12.4375 -1.046875 C 11.851562 -0.566406 11.125 -0.1875 10.25 0.09375 C 9.375 0.382812 8.363281 0.53125 7.21875 0.53125 C 6.1875 0.53125 5.257812 0.414062 4.4375 0.1875 C 3.613281 -0.03125 2.742188 -0.378906 1.828125 -0.859375 L 1.71875 -4.78125 L 3.703125 -4.78125 L 4.375 -1.6875 C 5.21875 -1.300781 6.191406 -1.109375 7.296875 -1.109375 C 8.660156 -1.109375 9.675781 -1.359375 10.34375 -1.859375 C 11.007812 -2.367188 11.34375 -3.039062 11.34375 -3.875 C 11.34375 -4.644531 11.0625 -5.253906 10.5 -5.703125 C 9.9375 -6.160156 9.082031 -6.609375 7.9375 -7.046875 L 6.28125 -7.65625 C 4.96875 -8.132812 3.914062 -8.757812 3.125 -9.53125 C 2.332031 -10.3125 1.9375 -11.273438 1.9375 -12.421875 C 1.9375 -13.117188 2.085938 -13.78125 2.390625 -14.40625 C 2.691406 -15.03125 3.109375 -15.582031 3.640625 -16.0625 C 4.179688 -16.539062 4.84375 -16.921875 5.625 -17.203125 C 6.40625 -17.492188 7.269531 -17.640625 8.21875 -17.640625 C 9.207031 -17.640625 10.09375 -17.515625 10.875 -17.265625 C 11.664062 -17.015625 12.457031 -16.648438 13.25 -16.171875 L 13.109375 -12.5 L 11.25 -12.5 L 10.703125 -15.375 C 9.835938 -15.78125 9 -15.984375 8.1875 -15.984375 C 7.082031 -15.984375 6.25 -15.75 5.6875 -15.28125 C 5.125 -14.8125 4.84375 -14.171875 4.84375 -13.359375 C 4.84375 -12.640625 5.085938 -12.070312 5.578125 -11.65625 C 6.078125 -11.238281 6.945312 -10.800781 8.1875 -10.34375 Z M 9.265625 -9.953125 "/></g></g></g><g fill="#f1be32" fill-opacity="1"><g transform="translate(157.495379, 268.511504)"><g><path d="M 11.609375 -1.546875 C 11.148438 -0.941406 10.554688 -0.472656 9.828125 -0.140625 C 9.097656 0.191406 8.273438 0.359375 7.359375 0.359375 C 6.085938 0.359375 5.085938 0.03125 4.359375 -0.625 C 3.628906 -1.28125 3.265625 -2.316406 3.265625 -3.734375 C 3.265625 -4.191406 3.269531 -4.640625 3.28125 -5.078125 C 3.300781 -5.523438 3.3125 -6.097656 3.3125 -6.796875 L 3.3125 -15.09375 L 0.328125 -15.09375 L 0.328125 -16.671875 L 3.515625 -17.0625 L 4.421875 -21.953125 L 6.609375 -21.953125 L 6.4375 -16.984375 L 11.25 -16.984375 L 11.25 -15.09375 L 6.359375 -15.09375 L 6.359375 -4.171875 C 6.359375 -3.234375 6.53125 -2.554688 6.875 -2.140625 C 7.226562 -1.722656 7.710938 -1.515625 8.328125 -1.515625 C 9.046875 -1.515625 9.847656 -1.847656 10.734375 -2.515625 Z M 11.609375 -1.546875 "/></g></g></g><g fill="#f1be32" fill-opacity="1"><g transform="translate(169.204806, 268.511504)"><g><path d="M 27.546875 -22.15625 C 27.503906 -20.65625 27.484375 -19.128906 27.484375 -17.578125 C 27.484375 -16.035156 27.484375 -14.472656 27.484375 -12.890625 L 27.484375 -11.140625 C 27.484375 -9.578125 27.484375 -8.03125 27.484375 -6.5 C 27.484375 -4.96875 27.503906 -3.425781 27.546875 -1.875 L 30.859375 -1.46875 L 30.859375 0 L 21.046875 0 L 21.046875 -1.46875 L 24.0625 -1.828125 C 24.113281 -3.359375 24.140625 -4.894531 24.140625 -6.4375 C 24.140625 -7.988281 24.140625 -9.554688 24.140625 -11.140625 L 24.140625 -18.75 L 15.875 0 L 14.765625 0 L 6.46875 -19 L 6.46875 -1.9375 L 9.453125 -1.46875 L 9.453125 0 L 1.359375 0 L 1.359375 -1.46875 L 4.640625 -1.9375 L 4.640625 -22.15625 L 1.40625 -22.5625 L 1.40625 -24.03125 L 7.796875 -24.03125 L 16.125 -4.734375 L 24.75 -24.03125 L 30.859375 -24.03125 L 30.859375 -22.5625 Z M 27.546875 -22.15625 "/></g></g></g><g fill="#f1be32" fill-opacity="1"><g transform="translate(201.639205, 268.511504)"><g><path d="M 11.640625 -9.296875 C 11.015625 -9.128906 10.40625 -8.953125 9.8125 -8.765625 C 9.226562 -8.578125 8.75 -8.410156 8.375 -8.265625 C 7.582031 -7.953125 6.953125 -7.632812 6.484375 -7.3125 C 6.015625 -6.988281 5.660156 -6.671875 5.421875 -6.359375 C 5.179688 -6.046875 5.023438 -5.734375 4.953125 -5.421875 C 4.878906 -5.109375 4.84375 -4.820312 4.84375 -4.5625 C 4.84375 -4.082031 4.910156 -3.695312 5.046875 -3.40625 C 5.179688 -3.125 5.34375 -2.875 5.53125 -2.65625 C 6.082031 -2.101562 6.8125 -1.828125 7.71875 -1.828125 C 8.007812 -1.828125 8.285156 -1.859375 8.546875 -1.921875 C 8.804688 -1.984375 9.082031 -2.09375 9.375 -2.25 C 9.664062 -2.40625 9.988281 -2.609375 10.34375 -2.859375 C 10.707031 -3.109375 11.140625 -3.410156 11.640625 -3.765625 Z M 18.109375 -1.546875 C 17.703125 -0.773438 17.257812 -0.265625 16.78125 -0.015625 C 16.300781 0.234375 15.769531 0.359375 15.1875 0.359375 C 14.1875 0.359375 13.398438 0.113281 12.828125 -0.375 C 12.253906 -0.863281 11.878906 -1.515625 11.703125 -2.328125 C 11.222656 -1.847656 10.78125 -1.425781 10.375 -1.0625 C 9.96875 -0.707031 9.5625 -0.410156 9.15625 -0.171875 C 8.75 0.0546875 8.328125 0.226562 7.890625 0.34375 C 7.460938 0.46875 6.988281 0.53125 6.46875 0.53125 C 5.820312 0.53125 5.203125 0.4375 4.609375 0.25 C 4.023438 0.0625 3.507812 -0.222656 3.0625 -0.609375 C 2.625 -0.992188 2.28125 -1.46875 2.03125 -2.03125 C 1.78125 -2.59375 1.65625 -3.242188 1.65625 -3.984375 C 1.65625 -4.484375 1.738281 -4.972656 1.90625 -5.453125 C 2.070312 -5.929688 2.367188 -6.390625 2.796875 -6.828125 C 3.234375 -7.273438 3.835938 -7.722656 4.609375 -8.171875 C 5.390625 -8.617188 6.390625 -9.054688 7.609375 -9.484375 C 8.160156 -9.671875 8.789062 -9.863281 9.5 -10.0625 C 10.207031 -10.269531 10.921875 -10.472656 11.640625 -10.671875 L 11.640625 -11.640625 C 11.640625 -12.503906 11.570312 -13.21875 11.4375 -13.78125 C 11.3125 -14.34375 11.113281 -14.785156 10.84375 -15.109375 C 10.582031 -15.429688 10.242188 -15.65625 9.828125 -15.78125 C 9.410156 -15.914062 8.898438 -15.984375 8.296875 -15.984375 C 8.035156 -15.984375 7.753906 -15.96875 7.453125 -15.9375 C 7.148438 -15.914062 6.820312 -15.875 6.46875 -15.8125 L 5.75 -13.296875 C 5.414062 -12.140625 4.769531 -11.5625 3.8125 -11.5625 C 3.300781 -11.5625 2.898438 -11.695312 2.609375 -11.96875 C 2.328125 -12.25 2.164062 -12.628906 2.125 -13.109375 C 2.457031 -14.472656 3.242188 -15.566406 4.484375 -16.390625 C 5.734375 -17.222656 7.28125 -17.640625 9.125 -17.640625 C 11.019531 -17.640625 12.421875 -17.160156 13.328125 -16.203125 C 14.234375 -15.242188 14.6875 -13.613281 14.6875 -11.3125 L 14.6875 -3.625 C 14.6875 -2.21875 15.082031 -1.515625 15.875 -1.515625 C 16.164062 -1.515625 16.414062 -1.578125 16.625 -1.703125 C 16.84375 -1.835938 17.035156 -1.976562 17.203125 -2.125 L 17.390625 -2.328125 Z M 18.109375 -1.546875 "/></g></g></g><g fill="#f1be32" fill-opacity="1"><g transform="translate(219.957639, 268.511504)"><g><path d="M 19.6875 -1.296875 L 19.6875 0 L 14.796875 0 L 9.265625 -8.90625 L 6.859375 -6.46875 C 6.859375 -5.695312 6.863281 -4.914062 6.875 -4.125 C 6.882812 -3.34375 6.90625 -2.566406 6.9375 -1.796875 L 9.765625 -1.296875 L 9.765625 0 L 0.9375 0 L 0.9375 -1.296875 L 3.765625 -1.796875 C 3.796875 -2.753906 3.816406 -3.71875 3.828125 -4.6875 C 3.835938 -5.65625 3.84375 -6.609375 3.84375 -7.546875 L 3.84375 -22.953125 L 0.890625 -23.3125 L 0.890625 -24.578125 L 6.5 -26.1875 L 7 -25.90625 L 6.859375 -20.796875 L 6.859375 -8.546875 L 13.1875 -15.125 L 10.5625 -15.515625 L 10.5625 -16.984375 L 18.75 -16.984375 L 18.75 -15.515625 L 15.296875 -15.046875 L 11.390625 -11.0625 L 17.3125 -1.71875 Z M 19.6875 -1.296875 "/></g></g></g><g fill="#f1be32" fill-opacity="1"><g transform="translate(239.640969, 268.511504)"><g><path d="M 11.53125 -10.234375 C 12.394531 -10.234375 12.96875 -10.410156 13.25 -10.765625 C 13.539062 -11.128906 13.6875 -11.578125 13.6875 -12.109375 C 13.6875 -12.609375 13.582031 -13.09375 13.375 -13.5625 C 13.175781 -14.03125 12.898438 -14.441406 12.546875 -14.796875 C 12.203125 -15.160156 11.796875 -15.445312 11.328125 -15.65625 C 10.867188 -15.875 10.363281 -15.984375 9.8125 -15.984375 C 9.300781 -15.984375 8.773438 -15.878906 8.234375 -15.671875 C 7.703125 -15.472656 7.210938 -15.140625 6.765625 -14.671875 C 6.328125 -14.203125 5.945312 -13.601562 5.625 -12.875 C 5.300781 -12.144531 5.09375 -11.265625 5 -10.234375 Z M 4.921875 -8.6875 C 4.972656 -6.46875 5.523438 -4.757812 6.578125 -3.5625 C 7.628906 -2.363281 9.015625 -1.765625 10.734375 -1.765625 C 11.890625 -1.765625 12.847656 -2.003906 13.609375 -2.484375 C 14.378906 -2.960938 15.085938 -3.582031 15.734375 -4.34375 L 16.59375 -3.65625 C 15.96875 -2.363281 15.070312 -1.34375 13.90625 -0.59375 C 12.75 0.15625 11.347656 0.53125 9.703125 0.53125 C 8.472656 0.53125 7.367188 0.328125 6.390625 -0.078125 C 5.410156 -0.484375 4.570312 -1.070312 3.875 -1.84375 C 3.1875 -2.625 2.648438 -3.566406 2.265625 -4.671875 C 1.878906 -5.773438 1.6875 -7.007812 1.6875 -8.375 C 1.6875 -9.738281 1.898438 -10.988281 2.328125 -12.125 C 2.765625 -13.257812 3.359375 -14.234375 4.109375 -15.046875 C 4.867188 -15.859375 5.75 -16.492188 6.75 -16.953125 C 7.757812 -17.410156 8.828125 -17.640625 9.953125 -17.640625 C 10.878906 -17.640625 11.753906 -17.484375 12.578125 -17.171875 C 13.410156 -16.859375 14.125 -16.398438 14.71875 -15.796875 C 15.320312 -15.203125 15.796875 -14.472656 16.140625 -13.609375 C 16.492188 -12.753906 16.671875 -11.785156 16.671875 -10.703125 C 16.671875 -10.296875 16.644531 -9.925781 16.59375 -9.59375 C 16.550781 -9.257812 16.492188 -8.957031 16.421875 -8.6875 Z M 4.921875 -8.6875 "/></g></g></g><g fill="#f1be32" fill-opacity="1"><g transform="translate(257.959403, 268.511504)"><g><path d="M 7.1875 -13.078125 C 7.8125 -14.515625 8.582031 -15.632812 9.5 -16.4375 C 10.425781 -17.238281 11.378906 -17.640625 12.359375 -17.640625 C 12.878906 -17.640625 13.382812 -17.5 13.875 -17.21875 C 14.375 -16.945312 14.679688 -16.5 14.796875 -15.875 C 14.796875 -15.28125 14.59375 -14.804688 14.1875 -14.453125 C 13.78125 -14.109375 13.265625 -13.9375 12.640625 -13.9375 C 11.898438 -13.9375 11.21875 -14.234375 10.59375 -14.828125 L 10.34375 -15.09375 C 9.601562 -14.539062 8.976562 -13.882812 8.46875 -13.125 C 7.96875 -12.375 7.550781 -11.457031 7.21875 -10.375 L 7.21875 -7.546875 C 7.21875 -6.753906 7.222656 -5.832031 7.234375 -4.78125 C 7.242188 -3.726562 7.265625 -2.742188 7.296875 -1.828125 L 10.234375 -1.296875 L 10.234375 0 L 1.546875 0 L 1.546875 -1.296875 L 4.125 -1.765625 C 4.15625 -2.671875 4.175781 -3.65625 4.1875 -4.71875 C 4.195312 -5.789062 4.203125 -6.734375 4.203125 -7.546875 L 4.203125 -9.375 C 4.203125 -10.351562 4.1875 -11.164062 4.15625 -11.8125 C 4.132812 -12.457031 4.113281 -13.140625 4.09375 -13.859375 L 1.25 -14.1875 L 1.25 -15.453125 L 6.25 -17.640625 L 6.796875 -17.28125 Z M 7.1875 -13.078125 "/></g></g></g></svg>